<svg xmlns="http://www.w3.org/2000/svg" viewBox="0 0 750 500"><g id="freepik--background-complete--inject-3"><rect x="148.29" y="49.43" width="106.91" height="4.86" style="fill:#ebebeb"></rect><rect x="177.11" y="58.74" width="64.91" height="4.86" style="fill:#ebebeb"></rect><rect x="177.11" y="67.55" width="26.87" height="4.86" style="fill:#ebebeb"></rect><rect x="262.89" y="49.43" width="12.29" height="4.86" style="fill:#f5f5f5"></rect><rect x="281.64" y="49.43" width="30.77" height="4.86" style="fill:#f5f5f5"></rect><rect x="159.15" y="58.74" width="12.29" height="4.86" style="fill:#f5f5f5"></rect><rect x="209.57" y="67.55" width="51.77" height="4.86" style="fill:#f5f5f5"></rect><rect x="265.72" y="67.55" width="31.3" height="4.86" style="fill:#f5f5f5"></rect><rect x="247.96" y="58.74" width="35.9" height="4.86" style="fill:#f5f5f5"></rect><rect x="153.39" y="83.21" width="106.91" height="4.86" style="fill:#ebebeb"></rect><rect x="182.22" y="92.52" width="64.91" height="4.86" style="fill:#ebebeb"></rect><rect x="182.22" y="101.33" width="26.87" height="4.86" style="fill:#ebebeb"></rect><rect x="268" y="83.21" width="12.29" height="4.86" style="fill:#f5f5f5"></rect><rect x="286.74" y="83.21" width="30.77" height="4.86" style="fill:#f5f5f5"></rect><rect x="164.25" y="92.52" width="12.29" height="4.86" style="fill:#f5f5f5"></rect><rect x="214.67" y="101.33" width="51.77" height="4.86" style="fill:#f5f5f5"></rect><rect x="270.83" y="101.33" width="31.3" height="4.86" style="fill:#f5f5f5"></rect><rect x="253.07" y="92.52" width="35.9" height="4.86" style="fill:#f5f5f5"></rect><rect x="535.1" y="294.35" width="106.91" height="4.86" style="fill:#ebebeb"></rect><rect x="563.92" y="303.66" width="64.91" height="4.86" style="fill:#ebebeb"></rect><rect x="563.92" y="312.47" width="26.87" height="4.86" style="fill:#ebebeb"></rect><rect x="649.7" y="294.35" width="12.29" height="4.86" style="fill:#f5f5f5"></rect><rect x="668.45" y="294.35" width="30.77" height="4.86" style="fill:#f5f5f5"></rect><rect x="545.96" y="303.66" width="12.29" height="4.86" style="fill:#f5f5f5"></rect><rect x="596.38" y="312.47" width="51.77" height="4.86" style="fill:#f5f5f5"></rect><rect x="652.53" y="312.47" width="31.3" height="4.86" style="fill:#f5f5f5"></rect><rect x="634.77" y="303.66" width="35.9" height="4.86" style="fill:#f5f5f5"></rect><rect x="544.82" y="325.55" width="106.91" height="4.86" style="fill:#ebebeb"></rect><rect x="573.64" y="334.85" width="64.91" height="4.86" style="fill:#ebebeb"></rect><rect x="573.64" y="343.66" width="26.87" height="4.86" style="fill:#ebebeb"></rect><rect x="659.42" y="325.55" width="12.29" height="4.86" style="fill:#f5f5f5"></rect><rect x="678.17" y="325.55" width="30.77" height="4.86" style="fill:#f5f5f5"></rect><rect x="555.68" y="334.85" width="12.29" height="4.86" style="fill:#f5f5f5"></rect><rect x="606.1" y="343.66" width="51.77" height="4.86" style="fill:#f5f5f5"></rect><rect x="662.25" y="343.66" width="31.3" height="4.86" style="fill:#f5f5f5"></rect><rect x="644.49" y="334.85" width="35.9" height="4.86" style="fill:#f5f5f5"></rect><path d="M507.43,407.42a20.67,20.67,0,0,1,5.07-2.2l1-5,8.48-.15,1.22,5a21,21,0,0,1,5.15,2l4.28-2.81,6.11,5.9-2.66,4.38a20.67,20.67,0,0,1,2.2,5.07l5,1.05.15,8.48-5,1.22a20.74,20.74,0,0,1-2,5.14l2.81,4.29-5.89,6.1L529,443.22a20.67,20.67,0,0,1-5.07,2.2l-1.05,5-8.48.15-1.22-5a20.74,20.74,0,0,1-5.14-2l-4.29,2.81-6.1-5.9,2.65-4.38a20.67,20.67,0,0,1-2.2-5.07l-5-1.05-.15-8.48,5-1.22a21,21,0,0,1,2-5.15l-2.81-4.28,5.9-6.11,4.38,2.66Zm4.52,11.3a9.1,9.1,0,1,0,12.87-.23A9.1,9.1,0,0,0,512,418.72Z" style="fill:#f5f5f5"></path><path d="M639.38,177.49a20.67,20.67,0,0,1,5.07-2.2l1-5,8.48-.15,1.22,5a21,21,0,0,1,5.15,2l4.28-2.81,6.11,5.9-2.66,4.38a20.67,20.67,0,0,1,2.2,5.07l5,1.05.15,8.48-5,1.22a20.58,20.58,0,0,1-2,5.15l2.81,4.28L665.37,216,661,213.29a20.67,20.67,0,0,1-5.07,2.2l-1,5-8.49.15-1.22-5a20.9,20.9,0,0,1-5.14-2l-4.29,2.81-6.1-5.89,2.65-4.39a20.67,20.67,0,0,1-2.2-5.07l-5-1-.15-8.49,5-1.22a20.54,20.54,0,0,1,2-5.14l-2.81-4.29,5.89-6.1,4.38,2.65Zm4.52,11.3a9.11,9.11,0,1,0,12.87-.22A9.1,9.1,0,0,0,643.9,188.79Z" style="fill:#f5f5f5"></path><path d="M250.17,376a20.67,20.67,0,0,1,5.07-2.2l1.05-5,8.48-.15,1.22,5a20.58,20.58,0,0,1,5.15,2l4.28-2.81,6.11,5.89-2.66,4.39a20.67,20.67,0,0,1,2.2,5.07l5,1,.15,8.49-5,1.22a20.9,20.9,0,0,1-2,5.14l2.81,4.29-5.89,6.1-4.39-2.65a20.67,20.67,0,0,1-5.07,2.2l-1.05,5-8.48.15-1.22-5a20.39,20.39,0,0,1-5.14-2L246.52,415l-6.1-5.9,2.65-4.38a20.67,20.67,0,0,1-2.2-5.07l-5-1.05-.15-8.48,5-1.22a21,21,0,0,1,2-5.15l-2.81-4.28,5.9-6.11,4.38,2.66Zm4.52,11.3a9.1,9.1,0,1,0,12.87-.23A9.1,9.1,0,0,0,254.69,387.29Z" style="fill:#f5f5f5"></path><path d="M599.71,73.46a27.69,27.69,0,0,1,6.83-3L608,63.73l11.42-.2,1.65,6.7A27.93,27.93,0,0,1,628,73l5.78-3.78L642,77.11,638.37,83a28.47,28.47,0,0,1,3,6.83l6.76,1.41.2,11.43-6.71,1.64a27.93,27.93,0,0,1-2.73,6.93l3.79,5.78-7.94,8.22-5.9-3.58a27.6,27.6,0,0,1-6.84,3l-1.4,6.76-11.43.2-1.64-6.71a28,28,0,0,1-6.94-2.72L594.79,126,586.57,118l3.58-5.9a27.69,27.69,0,0,1-3-6.83l-6.77-1.41-.2-11.43,6.71-1.64a27.78,27.78,0,0,1,2.73-6.93l-3.79-5.78,7.94-8.22,5.91,3.58Zm6.09,15.22a12.26,12.26,0,1,0,17.33-.3A12.26,12.26,0,0,0,605.8,88.68Z" style="fill:#f5f5f5"></path><path d="M61.5,126a21.19,21.19,0,0,1,5.18-2.25l1.06-5.12,8.65-.15,1.24,5.08a21.23,21.23,0,0,1,5.25,2.06l4.37-2.86,6.22,6-2.71,4.46A21.19,21.19,0,0,1,93,138.43l5.12,1.06.15,8.65-5.08,1.24a20.85,20.85,0,0,1-2.06,5.25L94,159l-6,6.23-4.47-2.71a21.65,21.65,0,0,1-5.17,2.24l-1.07,5.12-8.65.15L67.4,165a21.41,21.41,0,0,1-5.25-2.07l-4.37,2.87-6.22-6,2.71-4.47A21.29,21.29,0,0,1,52,150.11L46.9,149l-.15-8.65,5.08-1.24a21,21,0,0,1,2.06-5.25L51,129.53l6-6.22L61.5,126Zm4.61,11.52a9.28,9.28,0,1,0,13.12-.23A9.28,9.28,0,0,0,66.11,137.54Z" style="fill:#f5f5f5"></path><path d="M605.43,435.69a12.26,12.26,0,0,1,3-1.3l.62-2.95,5-.09.72,2.93a12.24,12.24,0,0,1,3,1.19l2.52-1.65,3.58,3.46-1.56,2.58a12.31,12.31,0,0,1,1.3,3l2.95.61.09,5-2.93.72a12.57,12.57,0,0,1-1.19,3l1.65,2.52-3.46,3.59-2.58-1.56a12.45,12.45,0,0,1-3,1.29l-.62,3-5,.09-.72-2.93a12.17,12.17,0,0,1-3-1.19l-2.52,1.65-3.59-3.46,1.56-2.58a11.9,11.9,0,0,1-1.29-3l-3-.61-.09-5,2.93-.71a11.72,11.72,0,0,1,1.19-3l-1.66-2.52,3.47-3.59,2.57,1.57Zm2.66,6.64a5.35,5.35,0,1,0,7.56-.14A5.35,5.35,0,0,0,608.09,442.33Z" style="fill:#f5f5f5"></path><path d="M122.07,183.62a11.9,11.9,0,0,1,3-1.29l.61-3,5-.09.71,2.93a11.72,11.72,0,0,1,3,1.19l2.52-1.66,3.59,3.47-1.57,2.57a12.16,12.16,0,0,1,1.3,3l3,.61.09,5-2.93.72a12.24,12.24,0,0,1-1.19,3l1.65,2.52-3.46,3.58-2.58-1.56a12.31,12.31,0,0,1-3,1.3l-.61,2.95-5,.09-.72-2.93a12.57,12.57,0,0,1-3-1.19l-2.52,1.65-3.59-3.46,1.56-2.58a12.06,12.06,0,0,1-1.29-3l-2.95-.61-.09-5,2.93-.72a12.17,12.17,0,0,1,1.19-3L116,185.65l3.46-3.59,2.58,1.56Zm2.65,6.64a5.35,5.35,0,1,0,7.57-.13A5.35,5.35,0,0,0,124.72,190.26Z" style="fill:#f5f5f5"></path><path d="M62.62,399.5a27.06,27.06,0,0,0-11.58-4c-1.89-.2-4-.14-5.48,1a1.13,1.13,0,0,0-.57,1,1.24,1.24,0,0,0,.54.68,16.56,16.56,0,0,0,17.09,1.3" style="fill:#e0e0e0"></path><path d="M62.33,399.17a57.28,57.28,0,0,1-7.49-6.58,19,19,0,0,1-4.69-8.68,3.51,3.51,0,0,1,.37-2.9c6,4.66,10.65,10.68,11.81,18.16" style="fill:#e0e0e0"></path><path d="M62.56,399.45a27,27,0,0,1,.14-9.82,13.28,13.28,0,0,1,5.23-8.11c1,2.41.59,5.19-.14,7.7a37.58,37.58,0,0,1-5.18,10.93" style="fill:#e0e0e0"></path><path d="M68.41,409.93a17.1,17.1,0,0,0-9.29,4.7,17.57,17.57,0,0,0-5.32,9.12c3.48-.21,6.44-2.67,8.58-5.42s3.63-5.77,6-8.35" style="fill:#e0e0e0"></path><path d="M69.68,411.6a22.9,22.9,0,0,1,2.64-21.67,27.57,27.57,0,0,1-2.64,21.67" style="fill:#e0e0e0"></path><path d="M77.4,420.8a16.58,16.58,0,0,0-15.84,9.12,1.22,1.22,0,0,0-.11,1.24,1.15,1.15,0,0,0,1,.31c3.13-.2,5.89-2.08,8.18-4.22s4.27-4.61,6.79-6.46" style="fill:#e0e0e0"></path><path d="M77.16,420.3a29.43,29.43,0,0,1-.3-16.48c.58-2.12,1.56-4.36,3.52-5.35a.7.7,0,0,1,.54-.1.79.79,0,0,1,.34.4,9.93,9.93,0,0,1,.83,4.73,31,31,0,0,1-.74,4.78c-.62,2.93-.95,6.07-2.56,8.6a18.93,18.93,0,0,0-1,1.88c-.3.65-.3.87-.58,1.38" style="fill:#e0e0e0"></path><path d="M97.6,423.35a21.29,21.29,0,0,1,3.73-17.48c.27-.34.62-.72,1.06-.68.67.07.84,1,.81,1.63a31.55,31.55,0,0,1-5.6,16.53" style="fill:#e0e0e0"></path><path d="M99.45,424.61a25.42,25.42,0,0,0,20.85-4.24A16.89,16.89,0,0,0,109,419a16.07,16.07,0,0,0-9.56,5.63" style="fill:#e0e0e0"></path><path d="M101,420.77a24.08,24.08,0,0,1,18.93-10.94,11.64,11.64,0,0,1-6.19,6.84,34.59,34.59,0,0,1-9.09,2.66c-1.2.23-2.86.49-3.65,1.44" style="fill:#e0e0e0"></path><path d="M98,402.15a55.14,55.14,0,0,0,2.43-11.08,18.48,18.48,0,0,0-2.21-11,24.12,24.12,0,0,0-.33,22.43" style="fill:#e0e0e0"></path><path d="M110.33,395.92c4.28-7.79,13-14,21.86-14.88-3.41,8.5-12.71,15.06-21.86,14.88" style="fill:#e0e0e0"></path><path d="M107.63,397.44c6.39,1,11.83,5.06,17.8,7.53a8,8,0,0,0,4,.77,3.15,3.15,0,0,0,2-5.57,8.68,8.68,0,0,0-2.93-1.77c-6.5-2.71-13.47-2.78-20.32-1.14" style="fill:#e0e0e0"></path><path d="M103.93,401.92c1.45.42,1.94,1.17,3.09,2.14a33.34,33.34,0,0,0,13.5,6.94c.51.13,1.19.18,1.45-.29s-.06-.9-.35-1.26a18.6,18.6,0,0,0-8.15-5.53c-3.12-1.16-5.82-2.56-9.54-2.26" style="fill:#e0e0e0"></path><path d="M99.76,374.86a25.57,25.57,0,0,0,19.59,6.67,1.33,1.33,0,0,0,.89-.32c.49-.54-.1-1.37-.67-1.81-5.76-4.49-12.74-6.35-19.81-4.54" style="fill:#e0e0e0"></path><path d="M104.71,373.05a27.32,27.32,0,0,1,24.44-4,19.33,19.33,0,0,1-11.65,5.11,36.56,36.56,0,0,1-12.79-1.08" style="fill:#e0e0e0"></path><path d="M102.74,360.62c-.56-5.75-.2-10.28-.59-16.06,0-.46-.14-1-.57-1.18-.6-.23-1.1.51-1.3,1.12a18.42,18.42,0,0,0,2.45,16" style="fill:#e0e0e0"></path><path d="M102.33,361.26a33.84,33.84,0,0,0,9.52-9.26c1.88-2.57,3.47-5.65,3-8.81A9.12,9.12,0,0,0,108,346.6a19.09,19.09,0,0,0-3.5,7c-.76,2.53-1.3,5.13-2.19,7.62" style="fill:#e0e0e0"></path><path d="M111.68,358.66a76.7,76.7,0,0,0,23.43-13.82c-2.8-1.13-6-.45-8.8.68a27.76,27.76,0,0,0-14.75,13.07" style="fill:#e0e0e0"></path><path d="M105,364.4a47.64,47.64,0,0,0,13,.06,54.76,54.76,0,0,0,12.14-4,1.45,1.45,0,0,0,.83-.63,1,1,0,0,0-.3-1,2.39,2.39,0,0,0-1-.48,22.51,22.51,0,0,0-13.13.78A60.8,60.8,0,0,0,105,364.4" style="fill:#e0e0e0"></path><path d="M80.26,375.06a23,23,0,0,1-.21-19c1.8,2.73,2,6.21,1.69,9.47s-1.32,6.6-1.38,9.87" style="fill:#e0e0e0"></path><path d="M68.48,369.12a26.55,26.55,0,0,0-19.74,8.4,18.43,18.43,0,0,0,10.8-2,54.5,54.5,0,0,0,9.27-6.2" style="fill:#e0e0e0"></path><path d="M60.55,366.47c-3.6-.3-7.07-.74-10.54.32a12.63,12.63,0,0,0-8,6.81,19.05,19.05,0,0,0,9.88-1.87,57.42,57.42,0,0,0,8.69-5.26" style="fill:#e0e0e0"></path><path d="M72.28,366.59c-3.24-2.13-6.57-4.29-10.34-5.17s-8.15-.23-10.79,2.61c3.06,1.8,6.77,2,10.31,2s7.89-.05,11.23,1.14" style="fill:#e0e0e0"></path><path d="M72.3,366.76c-5.54-5.45-7.64-15.22-5.41-22.66a34.46,34.46,0,0,1,5.41,22.66" style="fill:#e0e0e0"></path><path d="M87.55,351.34c1-2.43,1.78-5,2.71-7.46A21.5,21.5,0,0,1,94.14,337a10.17,10.17,0,0,1,6.86-3.56,27.6,27.6,0,0,1-13.32,17.92" style="fill:#e0e0e0"></path><path d="M84.79,354.55c-1.73-2.38-3.73-5.61-6.08-7.39A10.15,10.15,0,0,0,70.45,345a19.26,19.26,0,0,0,14.34,9.56" style="fill:#e0e0e0"></path><path d="M85.34,351.53a41.4,41.4,0,0,1-2.74-8.85,13.93,13.93,0,0,1,1.39-9c3,5.76,4,11.93,1.5,17.93" style="fill:#e0e0e0"></path><path d="M87.57,333.67c1.73-5.7,7-9.9,12.58-11.82a4.56,4.56,0,0,1,2.21-.33,1.92,1.92,0,0,1,1.63,1.35c.2,1-.6,1.84-1.35,2.49a42.77,42.77,0,0,1-15.07,8.31" style="fill:#e0e0e0"></path><path d="M87.64,329a40.32,40.32,0,0,1,1.64-10.89c1.2-3.48,3.5-6.75,6.85-8.27.57,3.71-1.07,7.4-3,10.6s-4.36,6.21-5.54,9.77" style="fill:#e0e0e0"></path><path d="M87.55,331.54c-1.43-4.15-1.58-9.43-4.06-13.05-1.74-2.53-4.53-4.26-6-6.94a10.6,10.6,0,0,0,.35,7.88A22.73,22.73,0,0,0,82.42,326c1.84,2,3.41,3.44,5.13,5.52" style="fill:#e0e0e0"></path><path d="M87.57,453.91c-.11,0-.2-27.72-.21-61.9s.07-61.92.19-61.92.2,27.72.21,61.92S87.68,453.91,87.57,453.91Z" style="fill:#e0e0e0"></path><path d="M111.8,370.88a6.18,6.18,0,0,1-1,.39l-2.87,1c-2.42.82-5.74,2-9.35,3.49s-6.94,2.78-8.85,4.44a6.52,6.52,0,0,0-1.78,2.35c-.28.65-.33,1.05-.36,1s0-.1,0-.29a4.56,4.56,0,0,1,.2-.8A6.13,6.13,0,0,1,89.5,380a15.43,15.43,0,0,1,3.84-2.39c1.54-.72,3.24-1.47,5-2.21,3.62-1.48,7-2.64,9.41-3.39,1.22-.38,2.22-.66,2.91-.85A5.47,5.47,0,0,1,111.8,370.88Z" style="fill:#e0e0e0"></path><path d="M119.74,351.37s-.09.12-.29.32l-.89.83-3.32,3-11.06,9.84c-4.31,3.84-8,7.51-10.62,10.27-1.3,1.38-2.32,2.53-3,3.32l-.8.92q-.28.32-.3.3s.07-.13.23-.35.41-.56.75-1c.66-.83,1.65-2,2.92-3.41a139.53,139.53,0,0,1,10.57-10.38c4.33-3.83,8.27-7.27,11.13-9.75l3.4-2.92.94-.78A1.78,1.78,0,0,1,119.74,351.37Z" style="fill:#e0e0e0"></path><path d="M99.53,369.28c-.12,0,.78-2.13,1.68-4.76s1.33-4.85,1.45-4.83a16.39,16.39,0,0,1-1.07,5,32.47,32.47,0,0,1-1.34,3.33A5.25,5.25,0,0,1,99.53,369.28Z" style="fill:#e0e0e0"></path><path d="M87.6,386.06a5,5,0,0,1-.67-.77l-1.7-2.18c-1.43-1.85-3.41-4.4-5.62-7.2s-4.26-5.3-5.74-7.11l-1.74-2.16a5.39,5.39,0,0,1-.6-.82,4.72,4.72,0,0,1,.72.72c.45.48,1.07,1.19,1.84,2.08,1.53,1.76,3.61,4.25,5.83,7s4.16,5.38,5.54,7.28c.68.94,1.23,1.72,1.6,2.26A5.44,5.44,0,0,1,87.6,386.06Z" style="fill:#e0e0e0"></path><path d="M82.29,379.24a9.65,9.65,0,0,1-2.23-4.16,11.76,11.76,0,0,1-.5-4.2h.17c-.07.32-.13.49-.16.49s0-.19,0-.52l.18,0a18.23,18.23,0,0,0,.71,4.08A28.51,28.51,0,0,0,82.29,379.24Z" style="fill:#e0e0e0"></path><path d="M75.43,370.62a6.86,6.86,0,0,0-1.55-.9,10.37,10.37,0,0,0-4.32-.35,27.15,27.15,0,0,0-4.34.7,11.39,11.39,0,0,1-1.79.43,6.72,6.72,0,0,1,1.71-.7,20.2,20.2,0,0,1,4.39-.83,9.47,9.47,0,0,1,4.45.48A2.71,2.71,0,0,1,75.43,370.62Z" style="fill:#e0e0e0"></path><path d="M73.8,368.53c0,.06-.9-.36-2.38-.87a23.93,23.93,0,0,0-12-.91c-1.53.27-2.46.56-2.48.49a2.4,2.4,0,0,1,.63-.27,14.55,14.55,0,0,1,1.79-.5,21.23,21.23,0,0,1,12.15.92,13.22,13.22,0,0,1,1.7.78C73.61,368.38,73.82,368.5,73.8,368.53Z" style="fill:#e0e0e0"></path><path d="M87.55,359.69a47.61,47.61,0,0,1-1.74-6,49.26,49.26,0,0,1-1.35-6.13,47.61,47.61,0,0,1,1.74,6A51.54,51.54,0,0,1,87.55,359.69Z" style="fill:#e0e0e0"></path><path d="M87.66,359.69a28.64,28.64,0,0,0-1.93-3.61,15.5,15.5,0,0,0-2.83-2.92c0-.05.47.12,1.09.56a8.6,8.6,0,0,1,2.07,2.13A8.17,8.17,0,0,1,87.66,359.69Z" style="fill:#e0e0e0"></path><path d="M87.57,439.14s-.12-.67-.43-1.85a26.29,26.29,0,0,0-1.86-4.8,66.53,66.53,0,0,0-9.82-13.84c-2.2-2.51-4.33-4.87-6.13-7.14a51,51,0,0,1-4.39-6.32,30.21,30.21,0,0,1-2.21-4.69c-.2-.58-.35-1-.43-1.34a2.84,2.84,0,0,1-.12-.48s.24.63.7,1.76a33.08,33.08,0,0,0,2.31,4.61,54.31,54.31,0,0,0,4.42,6.23c1.82,2.24,4,4.59,6.15,7.1a63.22,63.22,0,0,1,9.78,14,24.25,24.25,0,0,1,1.75,4.89,12.33,12.33,0,0,1,.24,1.39A1.81,1.81,0,0,1,87.57,439.14Z" style="fill:#e0e0e0"></path><path d="M109.46,414.41a9.49,9.49,0,0,1-1.14.65,25.24,25.24,0,0,0-3,2,34.49,34.49,0,0,0-3.91,3.57c-1.37,1.45-2.78,3.13-4.22,4.93-2.89,3.62-5.58,6.82-7.2,9.38-.82,1.26-1.41,2.33-1.8,3.08a10.47,10.47,0,0,1-.64,1.16,1.43,1.43,0,0,1,.11-.33c.09-.21.2-.51.39-.9a29,29,0,0,1,1.7-3.17,103.91,103.91,0,0,1,7.12-9.47c1.45-1.81,2.88-3.49,4.28-4.94a31.54,31.54,0,0,1,4-3.53,20.54,20.54,0,0,1,3.07-1.88c.38-.19.69-.31.9-.4A1.69,1.69,0,0,1,109.46,414.41Z" style="fill:#e0e0e0"></path><path d="M109.89,422.43a16.1,16.1,0,0,1-2.42.35,32.46,32.46,0,0,0-5.75,1.14,17,17,0,0,0-5.15,2.7c-1.19.92-1.75,1.68-1.8,1.63a1.79,1.79,0,0,1,.35-.56,9.27,9.27,0,0,1,1.27-1.29,15.41,15.41,0,0,1,5.2-2.86,26.25,26.25,0,0,1,5.85-1A13.5,13.5,0,0,1,109.89,422.43Z" style="fill:#e0e0e0"></path><path d="M95.47,427.37c-.12-.07,1-1.74,1.82-4s1-4.25,1.12-4.22a3.87,3.87,0,0,1,0,1.3,13.73,13.73,0,0,1-.71,3.06,14.91,14.91,0,0,1-1.4,2.81C95.82,427,95.52,427.4,95.47,427.37Z" style="fill:#e0e0e0"></path><path d="M116.55,392.88a1.91,1.91,0,0,1-.39.2l-1.14.52c-.49.22-1.1.49-1.78.85s-1.49.72-2.32,1.22l-1.32.75c-.46.26-.91.57-1.4.88-1,.59-2,1.32-3,2.06A51.64,51.64,0,0,0,93.67,411.3c-.7,1.06-1.4,2.06-2,3.06-.28.49-.58,1-.83,1.42l-.7,1.35c-.48.85-.81,1.66-1.14,2.36s-.59,1.31-.79,1.81l-.47,1.16a2,2,0,0,1-.2.4,2.15,2.15,0,0,1,.12-.43l.41-1.18a18.41,18.41,0,0,1,.72-1.85c.31-.71.63-1.53,1.09-2.39l.69-1.37c.24-.48.53-.95.82-1.45.55-1,1.23-2,1.94-3.1a53.57,53.57,0,0,1,5.3-6.51,54.57,54.57,0,0,1,6.32-5.52c1.05-.74,2.05-1.46,3-2,.49-.3,1-.61,1.42-.87l1.34-.73c.85-.49,1.66-.84,2.36-1.17a18.32,18.32,0,0,1,1.82-.79l1.17-.45A1.93,1.93,0,0,1,116.55,392.88Z" style="fill:#e0e0e0"></path><path d="M99.23,404.49a2.76,2.76,0,0,1,1-1.42,6,6,0,0,1,3.84-1.48,10.62,10.62,0,0,1,4,.79,5.91,5.91,0,0,1,1.53.75,10.36,10.36,0,0,1-1.63-.48A12.24,12.24,0,0,0,104,402a6.24,6.24,0,0,0-3.66,1.29A9.31,9.31,0,0,0,99.23,404.49Z" style="fill:#e0e0e0"></path><path d="M96.64,407.16a10.21,10.21,0,0,0,.84-7.25s.27.36.45,1a7.24,7.24,0,0,1-.62,5.32C97,406.87,96.68,407.18,96.64,407.16Z" style="fill:#e0e0e0"></path><path d="M68.43,443.11c.6,10.59,3.79,21.37,8.7,32.26H98.48c4.68-10.79,7.65-21.54,8.18-32.26Z" style="fill:#e0e0e0"></path><path d="M103.2,460.25c0,.11-7,.2-15.7.2s-15.7-.09-15.7-.2,7-.2,15.7-.2S103.2,460.14,103.2,460.25Z" style="fill:#fafafa"></path><path d="M102.73,464.09c0,.11-6.6.2-14.72.2s-14.72-.09-14.72-.2,6.59-.2,14.72-.2S102.73,464,102.73,464.09Z" style="fill:#fafafa"></path><path d="M77.47,450.06a60.62,60.62,0,0,1,0,9.84,60.62,60.62,0,0,1,0-9.84Z" style="fill:#fafafa"></path><path d="M88.91,450.06a65,65,0,0,1,0,10.19,65,65,0,0,1,0-10.19Z" style="fill:#fafafa"></path><path d="M99.65,450a67.57,67.57,0,0,1,0,10.39,67.57,67.57,0,0,1,0-10.39Z" style="fill:#fafafa"></path><path d="M106,450.06c0,.11-8.24.2-18.41.2s-18.42-.09-18.42-.2,8.25-.2,18.42-.2S106,450,106,450.06Z" style="fill:#fafafa"></path></g><g id="freepik--Floor--inject-3"><path d="M703.78,475.74c0,.15-147.21.26-328.76.26s-328.8-.11-328.8-.26,147.18-.26,328.8-.26S703.78,475.6,703.78,475.74Z" style="fill:#263238"></path></g><g id="freepik--character-3--inject-3"><rect x="201.05" y="102.53" width="397.26" height="284.33" rx="14.01" style="fill:#fff"></rect><path d="M214.74,102.53H584.59a13.72,13.72,0,0,1,13.72,13.72v16.6a0,0,0,0,1,0,0H201a0,0,0,0,1,0,0V116.28A13.75,13.75,0,0,1,214.74,102.53Z" style="fill:#e0e0e0"></path><path d="M585.09,386.87s.29,0,.87-.06a5.9,5.9,0,0,0,1.07-.12l.69-.11.78-.2a12.81,12.81,0,0,0,3.86-1.74,13.08,13.08,0,0,0,4-4.22,13.22,13.22,0,0,0,1.87-7.11q0-4.14,0-9c0-6.52,0-14.06,0-22.54,0-33.92-.05-83-.08-143.63q0-22.75,0-47.6,0-12.42,0-25.32V118.7a23.09,23.09,0,0,0-.49-6.44,13,13,0,0,0-8.73-8.94,12.7,12.7,0,0,0-3.24-.54c-1.1-.06-2.24,0-3.35,0H475.16l-260.86,0a13,13,0,0,0-7.9,2.67,13.43,13.43,0,0,0-2.9,3.07,13.17,13.17,0,0,0-1.73,3.84,14.28,14.28,0,0,0-.4,2.07c0,.7-.08,1.4-.06,2.12V163.5q0,33.81,0,66.56c0,43.64,0,85.73,0,125.82q0,7.53,0,14.95c0,2.47-.14,4.95.79,7.22a12.81,12.81,0,0,0,4.16,5.78,12.72,12.72,0,0,0,6.54,2.71,35.73,35.73,0,0,0,3.6.1H289.6l99.19,0,143.63.09,39.05.05,10.16,0,3.46,0s-1.17,0-3.46,0l-10.16,0-39.05.05-143.63.08-99.19,0-55.26,0h-18a34.63,34.63,0,0,1-3.66-.1,14,14,0,0,1-3.58-.92,13.66,13.66,0,0,1-3.19-1.88,13.36,13.36,0,0,1-4.32-6,14.21,14.21,0,0,1-.52-1.8,13,13,0,0,1-.24-1.86c-.1-1.27,0-2.48-.05-3.72V355.88c0-40.09,0-82.18,0-125.82V116.57c0-.71,0-1.44.07-2.17a13.07,13.07,0,0,1,.41-2.16,13.67,13.67,0,0,1,1.8-4,14.25,14.25,0,0,1,3-3.19,13.55,13.55,0,0,1,8.22-2.79l260.86,0H582.29c1.12,0,2.23,0,3.37,0a13.14,13.14,0,0,1,9.06,4.05,13.41,13.41,0,0,1,3.3,5.75,10.27,10.27,0,0,1,.34,1.63,10.11,10.11,0,0,1,.14,1.65c0,1.1,0,2.18,0,3.27v6.48q0,12.9,0,25.32,0,24.83,0,47.6c0,60.64-.06,109.71-.08,143.63,0,8.48,0,16,0,22.54,0,3.27,0,6.28,0,9a13.39,13.39,0,0,1-1.91,7.16,13.12,13.12,0,0,1-4.06,4.23,12.7,12.7,0,0,1-3.88,1.73l-.79.2-.69.1a7,7,0,0,1-1.08.11Z" style="fill:#263238"></path><path d="M225.15,119a5.31,5.31,0,1,1-5.31-5.26A5.29,5.29,0,0,1,225.15,119Z" style="fill:#f5f5f5"></path><path d="M238.8,119a5.31,5.31,0,1,1-5.3-5.26A5.28,5.28,0,0,1,238.8,119Z" style="fill:#f5f5f5"></path><path d="M252.45,119a5.31,5.31,0,1,1-5.3-5.26A5.28,5.28,0,0,1,252.45,119Z" style="fill:#f5f5f5"></path><path d="M449.22,290.88a65.16,65.16,0,0,1,11.63,0,65.16,65.16,0,0,1-11.63,0Z" style="fill:#e0e0e0"></path><path d="M426,290.88a65,65,0,0,1,11.62,0,65,65,0,0,1-11.62,0Z" style="fill:#e0e0e0"></path><path d="M402.71,290.88a65.16,65.16,0,0,1,11.63,0,65.16,65.16,0,0,1-11.63,0Z" style="fill:#e0e0e0"></path><path d="M379.46,290.88a65.16,65.16,0,0,1,11.63,0,65.16,65.16,0,0,1-11.63,0Z" style="fill:#e0e0e0"></path><path d="M366.93,277.62a31.39,31.39,0,0,1,.27,5.81c0,.8,0,1.58,0,2.24a6.1,6.1,0,0,0,.42,1.72c.4.94.83,1.44.76,1.5a3.07,3.07,0,0,1-1.09-1.35,5.65,5.65,0,0,1-.57-1.82c-.09-.73-.05-1.48-.07-2.29A33.09,33.09,0,0,1,366.93,277.62Z" style="fill:#e0e0e0"></path><path d="M366.93,254.36a31.46,31.46,0,0,1,.27,5.82,31.39,31.39,0,0,1-.27,5.81,33.09,33.09,0,0,1-.26-5.81A33.16,33.16,0,0,1,366.93,254.36Z" style="fill:#e0e0e0"></path><path d="M366.93,231.11a31.39,31.39,0,0,1,.27,5.81,31.39,31.39,0,0,1-.27,5.81,33.09,33.09,0,0,1-.26-5.81A33.09,33.09,0,0,1,366.93,231.11Z" style="fill:#e0e0e0"></path><path d="M366.93,207.85a31.54,31.54,0,0,1,.27,5.82,31.39,31.39,0,0,1-.27,5.81,33.09,33.09,0,0,1-.26-5.81A33.25,33.25,0,0,1,366.93,207.85Z" style="fill:#e0e0e0"></path><path d="M384.44,199.57a65,65,0,0,1-11.62,0,65,65,0,0,1,11.62,0Z" style="fill:#e0e0e0"></path><path d="M407.7,199.57a65.16,65.16,0,0,1-11.63,0,65.16,65.16,0,0,1,11.63,0Z" style="fill:#e0e0e0"></path><path d="M431,199.57a65.16,65.16,0,0,1-11.63,0,65.16,65.16,0,0,1,11.63,0Z" style="fill:#e0e0e0"></path><path d="M454.21,199.57a65.16,65.16,0,0,1-11.63,0,65.16,65.16,0,0,1,11.63,0Z" style="fill:#e0e0e0"></path><path d="M466.73,212.84a33.25,33.25,0,0,1-.26-5.82c0-.8,0-1.58,0-2.23a6.17,6.17,0,0,0-.43-1.73c-.39-.94-.82-1.44-.76-1.49s.59.37,1.1,1.34a5.65,5.65,0,0,1,.57,1.82A21.46,21.46,0,0,1,467,207,33.25,33.25,0,0,1,466.73,212.84Z" style="fill:#e0e0e0"></path><path d="M466.73,236.09a33.09,33.09,0,0,1-.26-5.81,33.25,33.25,0,0,1,.26-5.82,33.25,33.25,0,0,1,.26,5.82A33.09,33.09,0,0,1,466.73,236.09Z" style="fill:#e0e0e0"></path><path d="M466.73,259.35a33.25,33.25,0,0,1-.26-5.82,33.09,33.09,0,0,1,.26-5.81,33.09,33.09,0,0,1,.26,5.81A33.25,33.25,0,0,1,466.73,259.35Z" style="fill:#e0e0e0"></path><path d="M466.73,282.6a33.09,33.09,0,0,1-.26-5.81,33.16,33.16,0,0,1,.26-5.82,33.16,33.16,0,0,1,.26,5.82A33.09,33.09,0,0,1,466.73,282.6Z" style="fill:#e0e0e0"></path><path d="M448.44,312.25a16.47,16.47,0,0,1,5.83,0,16.47,16.47,0,0,1-5.83,0Z" style="fill:#e0e0e0"></path><path d="M436.78,312.25a16.47,16.47,0,0,1,5.83,0,16.47,16.47,0,0,1-5.83,0Z" style="fill:#e0e0e0"></path><path d="M425.11,312.25a16.47,16.47,0,0,1,5.83,0,16.47,16.47,0,0,1-5.83,0Z" style="fill:#e0e0e0"></path><path d="M413.45,312.25a16.47,16.47,0,0,1,5.83,0,16.47,16.47,0,0,1-5.83,0Z" style="fill:#e0e0e0"></path><path d="M401.78,312.25a16.53,16.53,0,0,1,5.84,0,16.53,16.53,0,0,1-5.84,0Z" style="fill:#e0e0e0"></path><path d="M390.12,312.25a16.47,16.47,0,0,1,5.83,0,16.47,16.47,0,0,1-5.83,0Z" style="fill:#e0e0e0"></path><path d="M378.46,312.25a16.47,16.47,0,0,1,5.83,0,16.47,16.47,0,0,1-5.83,0Z" style="fill:#e0e0e0"></path><path d="M369,308.39a6.61,6.61,0,0,0,1.21,2.49,6.85,6.85,0,0,0,2.39,1.37c0,.06-.34.14-.89,0a3.53,3.53,0,0,1-1.88-1.06,3.48,3.48,0,0,1-.93-2C368.86,308.73,369,308.39,369,308.39Z" style="fill:#e0e0e0"></path><path d="M378.62,304.71a16.47,16.47,0,0,1-5.83,0,16.47,16.47,0,0,1,5.83,0Z" style="fill:#e0e0e0"></path><path d="M390.28,304.71a16.47,16.47,0,0,1-5.83,0,16.47,16.47,0,0,1,5.83,0Z" style="fill:#e0e0e0"></path><path d="M402,304.71a16.47,16.47,0,0,1-5.83,0,16.47,16.47,0,0,1,5.83,0Z" style="fill:#e0e0e0"></path><path d="M413.61,304.71a16.47,16.47,0,0,1-5.83,0,16.47,16.47,0,0,1,5.83,0Z" style="fill:#e0e0e0"></path><path d="M425.28,304.71a16.53,16.53,0,0,1-5.84,0,16.53,16.53,0,0,1,5.84,0Z" style="fill:#e0e0e0"></path><path d="M436.94,304.71a16.47,16.47,0,0,1-5.83,0,16.47,16.47,0,0,1,5.83,0Z" style="fill:#e0e0e0"></path><path d="M448.6,304.71a16.47,16.47,0,0,1-5.83,0,16.47,16.47,0,0,1,5.83,0Z" style="fill:#e0e0e0"></path><path d="M458,308.57a4.68,4.68,0,0,0-3.61-3.86c0-.06.35-.14.9,0a3.53,3.53,0,0,1,1.88,1.06,3.48,3.48,0,0,1,.93,1.95C458.2,308.23,458.1,308.57,458,308.57Z" style="fill:#e0e0e0"></path><path d="M448.44,332.76a16.47,16.47,0,0,1,5.83,0,16.47,16.47,0,0,1-5.83,0Z" style="fill:#e0e0e0"></path><path d="M436.78,332.76a16.47,16.47,0,0,1,5.83,0,16.47,16.47,0,0,1-5.83,0Z" style="fill:#e0e0e0"></path><path d="M425.11,332.76a16.47,16.47,0,0,1,5.83,0,16.47,16.47,0,0,1-5.83,0Z" style="fill:#e0e0e0"></path><path d="M413.45,332.76a16.47,16.47,0,0,1,5.83,0,16.47,16.47,0,0,1-5.83,0Z" style="fill:#e0e0e0"></path><path d="M401.78,332.76a16.53,16.53,0,0,1,5.84,0,16.53,16.53,0,0,1-5.84,0Z" style="fill:#e0e0e0"></path><path d="M390.12,332.76a16.47,16.47,0,0,1,5.83,0,16.47,16.47,0,0,1-5.83,0Z" style="fill:#e0e0e0"></path><path d="M378.46,332.76a16.47,16.47,0,0,1,5.83,0,16.47,16.47,0,0,1-5.83,0Z" style="fill:#e0e0e0"></path><path d="M369,328.9a4.69,4.69,0,0,0,3.6,3.85c0,.07-.34.14-.89,0a3.44,3.44,0,0,1-1.88-1.05,3.48,3.48,0,0,1-.93-1.95C368.86,329.23,369,328.9,369,328.9Z" style="fill:#e0e0e0"></path><path d="M378.62,325.22a16.47,16.47,0,0,1-5.83,0,16.47,16.47,0,0,1,5.83,0Z" style="fill:#e0e0e0"></path><path d="M390.28,325.22a16.47,16.47,0,0,1-5.83,0,16.47,16.47,0,0,1,5.83,0Z" style="fill:#e0e0e0"></path><path d="M402,325.22a16.47,16.47,0,0,1-5.83,0,16.47,16.47,0,0,1,5.83,0Z" style="fill:#e0e0e0"></path><path d="M413.61,325.22a16.47,16.47,0,0,1-5.83,0,16.47,16.47,0,0,1,5.83,0Z" style="fill:#e0e0e0"></path><path d="M425.28,325.22a16.53,16.53,0,0,1-5.84,0,16.53,16.53,0,0,1,5.84,0Z" style="fill:#e0e0e0"></path><path d="M436.94,325.22a16.47,16.47,0,0,1-5.83,0,16.47,16.47,0,0,1,5.83,0Z" style="fill:#e0e0e0"></path><path d="M448.6,325.22a16.47,16.47,0,0,1-5.83,0,16.47,16.47,0,0,1,5.83,0Z" style="fill:#e0e0e0"></path><path d="M458,329.07a6.87,6.87,0,0,0-1.21-2.48,6.76,6.76,0,0,0-2.4-1.37c0-.06.35-.14.9,0a3.5,3.5,0,0,1,1.88,1.05,3.54,3.54,0,0,1,.93,1.95C458.2,328.74,458.1,329.08,458,329.07Z" style="fill:#e0e0e0"></path><path d="M448.44,352.65a15.87,15.87,0,0,1,5.83,0,16.47,16.47,0,0,1-5.83,0Z" style="fill:#e0e0e0"></path><path d="M436.78,352.65a15.87,15.87,0,0,1,5.83,0,16.47,16.47,0,0,1-5.83,0Z" style="fill:#e0e0e0"></path><path d="M425.11,352.65a15.87,15.87,0,0,1,5.83,0,16.47,16.47,0,0,1-5.83,0Z" style="fill:#e0e0e0"></path><path d="M413.45,352.65a15.87,15.87,0,0,1,5.83,0,16.47,16.47,0,0,1-5.83,0Z" style="fill:#e0e0e0"></path><path d="M401.78,352.65a15.92,15.92,0,0,1,5.84,0,16.53,16.53,0,0,1-5.84,0Z" style="fill:#e0e0e0"></path><path d="M390.12,352.65a15.87,15.87,0,0,1,5.83,0,16.47,16.47,0,0,1-5.83,0Z" style="fill:#e0e0e0"></path><path d="M378.46,352.65a15.87,15.87,0,0,1,5.83,0,16.47,16.47,0,0,1-5.83,0Z" style="fill:#e0e0e0"></path><path d="M369,348.79a6.68,6.68,0,0,0,1.21,2.48,6.85,6.85,0,0,0,2.39,1.37c0,.06-.34.14-.89,0a3.56,3.56,0,0,1-2.81-3C368.86,349.12,369,348.78,369,348.79Z" style="fill:#e0e0e0"></path><path d="M378.62,345.1a16.47,16.47,0,0,1-5.83,0,16.47,16.47,0,0,1,5.83,0Z" style="fill:#e0e0e0"></path><path d="M390.28,345.1a16.47,16.47,0,0,1-5.83,0,16.47,16.47,0,0,1,5.83,0Z" style="fill:#e0e0e0"></path><path d="M402,345.1a16.47,16.47,0,0,1-5.83,0,16.47,16.47,0,0,1,5.83,0Z" style="fill:#e0e0e0"></path><path d="M413.61,345.1a16.47,16.47,0,0,1-5.83,0,16.47,16.47,0,0,1,5.83,0Z" style="fill:#e0e0e0"></path><path d="M425.28,345.1a16.53,16.53,0,0,1-5.84,0,16.53,16.53,0,0,1,5.84,0Z" style="fill:#e0e0e0"></path><path d="M436.94,345.1a16.47,16.47,0,0,1-5.83,0,16.47,16.47,0,0,1,5.83,0Z" style="fill:#e0e0e0"></path><path d="M448.6,345.1a16.47,16.47,0,0,1-5.83,0,16.47,16.47,0,0,1,5.83,0Z" style="fill:#e0e0e0"></path><path d="M458,349a6.87,6.87,0,0,0-1.21-2.48,6.76,6.76,0,0,0-2.4-1.37c0-.06.35-.14.9,0a3.56,3.56,0,0,1,2.81,3C458.2,348.63,458.1,349,458,349Z" style="fill:#e0e0e0"></path><path d="M573.62,308.76H492.86a2.92,2.92,0,0,1-2.92-2.92h0a2.92,2.92,0,0,1,2.92-2.92h80.76a2.92,2.92,0,0,1,2.92,2.92h0A2.92,2.92,0,0,1,573.62,308.76Z" style="fill:#e0e0e0"></path><path d="M573.62,324.24H493.56a2.91,2.91,0,0,1-2.92-2.92h0a2.92,2.92,0,0,1,2.92-2.92h80.06a2.92,2.92,0,0,1,2.92,2.92h0A2.92,2.92,0,0,1,573.62,324.24Z" style="fill:#e0e0e0"></path><path d="M534.4,341.32H493.56a2.91,2.91,0,0,1-2.92-2.92h0a2.92,2.92,0,0,1,2.92-2.92H534.4a2.92,2.92,0,0,1,2.92,2.92h0A2.92,2.92,0,0,1,534.4,341.32Z" style="fill:#e0e0e0"></path><g style="opacity:0.2"><rect x="230.35" y="192.55" width="122.22" height="170.6" rx="10.29"></rect></g><rect x="224.92" y="184.55" width="122.22" height="170.6" rx="6.84" style="fill:#f5f5f5"></rect><path d="M340.3,355.15a10,10,0,0,0,1.47-.19,6.8,6.8,0,0,0,3.64-2.19,6.55,6.55,0,0,0,1.45-2.79,15.65,15.65,0,0,0,.2-3.83q0-4.2,0-9.65C347,322,347,301,347,275c0-13,0-27.21,0-42.47,0-7.63,0-15.53,0-23.66V196.51c0-1,0-2.09,0-3.15a21.46,21.46,0,0,0-.1-3.12,6.58,6.58,0,0,0-3.57-4.75c-1.86-1-4.09-.61-6.26-.69H231.77A6.64,6.64,0,0,0,226,188.3a6.92,6.92,0,0,0-.77,3.44v46.74c0,18.68,0,36.7,0,53.87s0,33.48,0,48.74c0,1.91,0,3.8,0,5.68a16.54,16.54,0,0,0,.12,2.75,6.49,6.49,0,0,0,1,2.48,6.61,6.61,0,0,0,4.31,2.83,14.65,14.65,0,0,0,2.66.12h2.67l20.38,0,61.49.08,16.72.05,4.34,0c1,0,1.48,0,1.48,0l-1.48,0-4.34,0-16.72.05-61.49.09h-23a16.83,16.83,0,0,1-2.73-.12,7.09,7.09,0,0,1-4.59-3,7,7,0,0,1-1.07-2.63,16.89,16.89,0,0,1-.12-2.83c0-1.88,0-3.77,0-5.68,0-15.26,0-31.58,0-48.74s0-35.19,0-53.87q0-14,0-28.49V191.74a7.39,7.39,0,0,1,.83-3.68,7.16,7.16,0,0,1,6.28-3.77H340.22a7.18,7.18,0,0,1,3.22.75,7,7,0,0,1,3.82,5.1,21.66,21.66,0,0,1,.12,3.2v3.15q0,6.27,0,12.37c0,8.13,0,16,0,23.66,0,15.26,0,29.48,0,42.47,0,25.95-.06,47-.08,61.49,0,3.63,0,6.85,0,9.65A16.47,16.47,0,0,1,347,350a6.65,6.65,0,0,1-1.5,2.83,6.85,6.85,0,0,1-3.71,2.18,6.4,6.4,0,0,1-1.1.13A3.64,3.64,0,0,1,340.3,355.15Z" style="fill:#263238"></path><path d="M329.32,264.66H239.71V195.3h89.61Zm-88.61-1h87.61V196.3H240.71Z" style="fill:#455a64"></path><path d="M243.85,196.23a3.65,3.65,0,1,1-3.64-3.64A3.65,3.65,0,0,1,243.85,196.23Z" style="fill:#455a64"></path><path d="M332.47,196.23a3.65,3.65,0,1,1-3.65-3.64A3.65,3.65,0,0,1,332.47,196.23Z" style="fill:#455a64"></path><path d="M243.85,264.16a3.65,3.65,0,1,1-3.64-3.65A3.64,3.64,0,0,1,243.85,264.16Z" style="fill:#455a64"></path><path d="M332.47,264.16a3.65,3.65,0,1,1-3.65-3.65A3.64,3.64,0,0,1,332.47,264.16Z" style="fill:#455a64"></path><path d="M269.2,213.16h33.93l.06,11.36h-1.62c-.54-4.06-2.06-6.82-4.57-8.25a14.21,14.21,0,0,0-6.33-1.3v29.69c0,2.07.36,3.45,1.09,4.13s2.23,1,4.52,1v1.43H276.19v-1.43c2.21,0,3.67-.34,4.39-1s1.09-2.06,1.09-4.12V215a14.55,14.55,0,0,0-6.33,1.3q-4.05,2.21-4.57,8.25h-1.62Z" style="fill:#455a64"></path><path d="M329.2,288.67h-90a2.92,2.92,0,0,1-2.92-2.92h0a2.92,2.92,0,0,1,2.92-2.92h90a2.92,2.92,0,0,1,2.92,2.92h0A2.92,2.92,0,0,1,329.2,288.67Z" style="fill:#e0e0e0"></path><path d="M329.2,303.3h-90a2.91,2.91,0,0,1-2.92-2.92h0a2.92,2.92,0,0,1,2.92-2.92h90a2.92,2.92,0,0,1,2.92,2.92h0A2.92,2.92,0,0,1,329.2,303.3Z" style="fill:#e0e0e0"></path><path d="M329.2,319.4h-90a2.91,2.91,0,0,1-2.92-2.92h0a2.92,2.92,0,0,1,2.92-2.92h90a2.92,2.92,0,0,1,2.92,2.92h0A2.92,2.92,0,0,1,329.2,319.4Z" style="fill:#e0e0e0"></path><path d="M280.32,334.37H239.16a2.92,2.92,0,0,1-2.92-2.92h0a2.92,2.92,0,0,1,2.92-2.92h41.16a2.92,2.92,0,0,1,2.92,2.92h0A2.92,2.92,0,0,1,280.32,334.37Z" style="fill:#e0e0e0"></path><g style="opacity:0.2"><rect x="497.28" y="210.38" width="87.06" height="76.86" rx="7.7"></rect></g><g style="opacity:0.1"><rect x="378.19" y="213.15" width="92.83" height="83.11" rx="7.93"></rect></g><rect x="491.59" y="205.53" width="87.06" height="76.86" rx="7.39" style="fill:#6366F1"></rect><g style="opacity:0.30000000000000004"><path d="M500.29,275.29h67.14a2.37,2.37,0,0,0,1.93-3.61l-18.54-31.37a2.14,2.14,0,0,0-3.71,0l-6.79,11.11a.85.85,0,0,1-1.46,0L526.38,230.3a2.28,2.28,0,0,0-4,0l-24.08,41.25A2.43,2.43,0,0,0,500.29,275.29Z"></path></g><g style="opacity:0.30000000000000004"><ellipse cx="556.92" cy="224.64" rx="8.39" ry="8.75"></ellipse></g><g style="opacity:0.2"><path d="M260.41,140.88l305.19,35.4a11.77,11.77,0,0,0,13-10.33h0a11.75,11.75,0,0,0-10.32-13l-305.19-35.4a11.75,11.75,0,0,0-13,10.32h0A11.76,11.76,0,0,0,260.41,140.88Z"></path></g><path d="M255.9,132.94l305.18,35.4a11.74,11.74,0,0,0,13-10.32h0a11.74,11.74,0,0,0-10.32-13l-305.18-35.4a11.76,11.76,0,0,0-13,10.32h0A11.76,11.76,0,0,0,255.9,132.94Z" style="fill:#fff"></path><path d="M255.9,132.94s-.15,0-.45-.06a9.08,9.08,0,0,1-1.3-.26,11.73,11.73,0,0,1-4.6-2.4,11.91,11.91,0,0,1-4-7.32,12.29,12.29,0,0,1,.47-5.38,12,12,0,0,1,3.39-5.12,11.63,11.63,0,0,1,2.81-1.86,11.35,11.35,0,0,1,3.41-1,12.46,12.46,0,0,1,1.84-.12c.62,0,1.26.07,1.88.15l3.87.45,17.12,2,41.75,4.8,241.72,28a12,12,0,0,1,10.62,12.54,11.88,11.88,0,0,1-3.58,8,12,12,0,0,1-8,3.41,32.43,32.43,0,0,1-4.34-.36l-4.29-.5-8.52-1-16.84-2-64.18-7.46L356,144.74l-73.25-8.58-19.91-2.36-5.18-.62-1.76-.24,1.77.18,5.18.58L282.77,136,356,144.37l108.68,12.55,64.18,7.43,16.84,2,8.52,1,4.28.5a31.26,31.26,0,0,0,4.28.35,11.49,11.49,0,0,0,.92-22.9L322,117.13l-41.74-4.88-17.12-2-3.86-.45c-.63-.09-1.25-.12-1.86-.16a12.05,12.05,0,0,0-1.81.12,10.73,10.73,0,0,0-3.35,1,11.26,11.26,0,0,0-2.77,1.82,11.68,11.68,0,0,0,4.64,20C255.29,132.88,255.91,132.91,255.9,132.94Z" style="fill:#263238"></path><path d="M529.92,156.42l-251.74-29.2a3.83,3.83,0,0,1-3.37-4.25h0a3.83,3.83,0,0,1,4.25-3.37l251.75,29.2a3.84,3.84,0,0,1,3.37,4.25h0A3.84,3.84,0,0,1,529.92,156.42Z" style="fill:#f5f5f5"></path><path d="M452.27,102.41a2,2,0,0,1,.1.26,4.49,4.49,0,0,1,.26,1.26,4.09,4.09,0,0,0,0,.61,2.92,2.92,0,0,0,.17.36,6.23,6.23,0,0,1,.22,2.51,4.83,4.83,0,0,0,.46,2.69,1.78,1.78,0,0,0,2.37.73,1.2,1.2,0,0,0,.9,1.32,1.74,1.74,0,0,0,1.61-.5,3.19,3.19,0,0,0,.81-1.54,1.33,1.33,0,0,0,1.33,1.29,2,2,0,0,0,1.69-1,4.75,4.75,0,0,0,.58-2,23.39,23.39,0,0,1,.42-2.64s.87.14,1.26.18h.12a15.69,15.69,0,0,0,.83-1.44c.55-1.14,1-1.86,1.39-2.89.32-.77.53-1.55.05-2-1.15-1.21-3.4,1.25-3.4,1.25-.32-.85-2.94-1-3.45.15-.2-.63-.13-1-.64-1.42a2.09,2.09,0,0,0-1.85-.46,1.49,1.49,0,0,0-1.12,1.45,2.45,2.45,0,0,0-4.13-.09,2.51,2.51,0,0,0-.38.83,1,1,0,0,0-.06.34.66.66,0,0,0,.05.15C452,102,452.16,102.18,452.27,102.41Z" style="fill:#ae7461"></path><path d="M449.51,100.73a2,2,0,0,0-1.57.53,3.19,3.19,0,0,0-.5,2.17c.79.15,1.2.18,2,.33.17,0,.31,0,.45.09.36.26.3,1.13.45,1.55a1.52,1.52,0,0,0,1.92.82,2.05,2.05,0,0,0,1.23-1.82,3.17,3.17,0,0,0-.81-2.12A4.4,4.4,0,0,0,449.51,100.73Z" style="fill:#ae7461"></path><path d="M456.42,100.3a27.19,27.19,0,0,1,0,5.28,25.71,25.71,0,0,1-.53,5.25,25.8,25.8,0,0,1,0-5.28A25.86,25.86,0,0,1,456.42,100.3Z" style="fill:#6f4439"></path><path d="M460,100.8a14.48,14.48,0,0,1,.11,4.79,15,15,0,0,1-.92,4.7,38.68,38.68,0,0,1,.38-4.75A40.24,40.24,0,0,1,460,100.8Z" style="fill:#6f4439"></path><path d="M463.59,101.29a11.25,11.25,0,0,1-.06,3.95,15.73,15.73,0,0,1-.75,3.88,13.76,13.76,0,0,1,.21-3.94A21.44,21.44,0,0,1,463.59,101.29Z" style="fill:#6f4439"></path><path d="M450.64,101.1c0-.06.38-.15.93.1a3,3,0,0,1,1.45,1.7,6.06,6.06,0,0,1,.36,2.18c-.06.65-.54.84-.55.76s.22-.29.17-.78a10.22,10.22,0,0,0-.48-2,3.26,3.26,0,0,0-1.14-1.56C451,101.24,450.64,101.18,450.64,101.1Z" style="fill:#6f4439"></path><path d="M527.14,86.39l-10.37-38c-2.27-9.53-9.72-16.16-19.19-13.63l-.86.29A17.52,17.52,0,0,0,485.2,55.83c2,8.26,4.35,17.36,5.83,21.65,3.07,8.9,12.46,7.33,12.46,7.33s1.63,5.48,2.39,8.13l-.35,6.81,6.92-3.94Z" style="fill:#ae7461"></path><path d="M503.49,84.81A22.75,22.75,0,0,0,514,77.51s-.57,7.65-9.75,9.79Z" style="fill:#6f4439"></path><path d="M489.85,63.56a1.35,1.35,0,0,0,1.65.88,1.29,1.29,0,0,0,.94-1.59,1.35,1.35,0,0,0-1.66-.88A1.29,1.29,0,0,0,489.85,63.56Z" style="fill:#263238"></path><path d="M488.41,59.15c.21.11.94-.92,2.31-1.37s2.61-.1,2.7-.32-.21-.34-.75-.52a3.71,3.71,0,0,0-2.23.05,3.55,3.55,0,0,0-1.78,1.3C488.35,58.75,488.3,59.1,488.41,59.15Z" style="fill:#263238"></path><path d="M501.88,60.38a1.35,1.35,0,0,0,1.66.88,1.29,1.29,0,0,0,.93-1.59,1.34,1.34,0,0,0-1.65-.88A1.28,1.28,0,0,0,501.88,60.38Z" style="fill:#263238"></path><path d="M502,55c.22.11,1-.92,2.32-1.37s2.61-.1,2.7-.32-.21-.34-.76-.52a3.7,3.7,0,0,0-2.23.05,3.56,3.56,0,0,0-1.77,1.3C501.91,54.61,501.86,55,502,55Z" style="fill:#263238"></path><path d="M500.54,67.19a9.45,9.45,0,0,0-2.37.33c-.36.08-.71.12-.85-.1a1.79,1.79,0,0,1-.11-1.11c.05-1,.1-2,.15-3,.18-4.28.19-7.75,0-7.76s-.45,3.46-.63,7.74c0,1-.08,2-.11,3a2.09,2.09,0,0,0,.28,1.43.91.91,0,0,0,.74.33,2.61,2.61,0,0,0,.63-.12A9.36,9.36,0,0,0,500.54,67.19Z" style="fill:#263238"></path><path d="M500.1,50.86c.3.29,1.51-.52,3.12-1.09s3-.77,3.09-1.18c0-.2-.37-.42-1-.52a5.49,5.49,0,0,0-2.57.32,5.55,5.55,0,0,0-2.16,1.42C500.1,50.31,500,50.72,500.1,50.86Z" style="fill:#263238"></path><path d="M487,55.14c.38.22,1.4-.46,2.75-.9s2.56-.58,2.72-1c.06-.19-.22-.45-.81-.59a4.55,4.55,0,0,0-2.41.2,4.41,4.41,0,0,0-2,1.32C486.89,54.65,486.83,55,487,55.14Z" style="fill:#263238"></path><path d="M518.23,55.24c.13-.12,5.54-3.85,7.36,2.32s-4.74,6.73-4.8,6.56S518.23,55.24,518.23,55.24Z" style="fill:#ae7461"></path><path d="M522,61.22s.13.05.34.07a1.07,1.07,0,0,0,.8-.22,2.77,2.77,0,0,0,.53-2.75,3.79,3.79,0,0,0-.76-1.45,1.3,1.3,0,0,0-1-.58.56.56,0,0,0-.55.48c0,.2,0,.31,0,.33s-.16-.07-.18-.33a.7.7,0,0,1,.12-.46.9.9,0,0,1,.55-.34,1.6,1.6,0,0,1,1.41.63,3.75,3.75,0,0,1,.88,1.61,2.91,2.91,0,0,1-.78,3.13,1.2,1.2,0,0,1-1,.12C522,61.37,522,61.24,522,61.22Z" style="fill:#6f4439"></path><path d="M505.14,66.8c-.21,0,.18,1.47-.75,2.82s-2.49,1.62-2.45,1.82.42.19,1.06,0A3.62,3.62,0,0,0,505.07,70a3.22,3.22,0,0,0,.54-2.34C505.5,67.07,505.24,66.76,505.14,66.8Z" style="fill:#263238"></path><path d="M470.38,51.27a1.53,1.53,0,0,1,.44-1.06A4.59,4.59,0,0,1,473,49.15a13.66,13.66,0,0,0,5.22-3.1,7.1,7.1,0,0,1-2-.67A4,4,0,0,1,474,41.86a.89.89,0,0,1,.31-.73c.36-.25.83,0,1.2.27a3.49,3.49,0,0,0,3.54.39,5.63,5.63,0,0,0,2.13-1.39.54.54,0,0,0,.05-.11l.66-1.23h0a21.48,21.48,0,0,1,5-6.63,22,22,0,0,1,10.92-4.22c3.39-.11,7,1.6,8.37,4.68,1.31-2,4-2.79,6.36-2.57l0,0c2.64.14,4.75,2.26,6.18,4.49l.23.36a9.83,9.83,0,0,0,4.15,2.18c.27.07.58.16.69.41a.8.8,0,0,1-.22.76,5,5,0,0,1-1.69,1.38,11,11,0,0,0,1.29,1.44c.4.38.89.83.79,1.37a1,1,0,0,1-.91.78,3.18,3.18,0,0,1-1.26-.17L523.13,45a5.81,5.81,0,0,1-2.65.6c.17,2.43,1,6.76.92,8.48-1.63.52-2.08.46-2.82,1-1,.67,0,2.44-1.54,2.32-.79-.06-2.68-2.42-3.13-3.07a36.62,36.62,0,0,1-6-14.45,12,12,0,0,0-4.25-1.48l.13.07c-2.78-.13-5.89-.14-7.93,1.76-1.58,1.47-2.09,3.72-3,5.67a13.46,13.46,0,0,1-8.14,7.48c.45,2.83,1.68,7.31,2.3,9.89l-3.68-4.43v0c-.26-.25-.5-.51-.73-.76l-.07-.08h0a14.57,14.57,0,0,0-1.14-1.23l0,0a1.65,1.65,0,0,1-2.95-1.43,4,4,0,0,1,.54-1,2.63,2.63,0,0,1-2.21,1.34,2.07,2.07,0,0,1-2-1.53,1.77,1.77,0,0,1,.6-1.65,5.91,5.91,0,0,1-3.43.26C471.21,52.54,470.41,52.13,470.38,51.27Z" style="fill:#263238"></path><path d="M503.56,34.78A5.89,5.89,0,0,1,507,37.92a12.36,12.36,0,0,1,.91,2.22c.25.83.45,1.74.67,2.7a26.64,26.64,0,0,0,.81,3,13.24,13.24,0,0,0,.67,1.5,3.37,3.37,0,0,0,1.09,1.32,1.4,1.4,0,0,0,1.4,0,2.09,2.09,0,0,0,1-1,4.87,4.87,0,0,0,.18-2.55l-.18.08a8.15,8.15,0,0,0,1.66,1.56,2.8,2.8,0,0,0,2,.43,1.79,1.79,0,0,0,.88-.44,1.53,1.53,0,0,0,.45-.81,1.57,1.57,0,0,0,0-.86,1.12,1.12,0,0,0-.5-.61l-.07.11a6.16,6.16,0,0,0,2.38.88,4.88,4.88,0,0,0,.67,0h.23l-.23,0a4.52,4.52,0,0,1-.66-.09A6.07,6.07,0,0,1,518,44.5l-.07.11a1.21,1.21,0,0,1,.46,1.32,1.52,1.52,0,0,1-.41.73,1.72,1.72,0,0,1-.8.39,2.64,2.64,0,0,1-1.9-.43,7.71,7.71,0,0,1-1.61-1.53l-.22-.25,0,.33a4.6,4.6,0,0,1-.17,2.44,1.91,1.91,0,0,1-.85.88,1.18,1.18,0,0,1-1.19,0,3.08,3.08,0,0,1-1-1.24,9.6,9.6,0,0,1-.66-1.47,22.91,22.91,0,0,1-.82-3c-.23-.95-.43-1.86-.69-2.7a12,12,0,0,0-1-2.25,6.7,6.7,0,0,0-2.37-2.58A3.62,3.62,0,0,0,503.56,34.78Z" style="fill:#455a64"></path><path d="M478.27,51.89l.09,0,.27.1a4,4,0,0,0,.46.13,4.43,4.43,0,0,0,.63.12,8.31,8.31,0,0,0,4.07-.45,10.68,10.68,0,0,0,4.85-3.64,18.47,18.47,0,0,0,3.07-6.79c.33-1.29.53-2.57.81-3.78a12.55,12.55,0,0,1,1.2-3.35,6.32,6.32,0,0,1,2.13-2.35,4.37,4.37,0,0,1,1.32-.57,5.11,5.11,0,0,1,1.33-.14,5.5,5.5,0,0,1,2.22.58,5.28,5.28,0,0,1,1.41,1A6.49,6.49,0,0,1,503,34a.55.55,0,0,0,0-.1l-.12-.26a5,5,0,0,0-.65-.92,5.29,5.29,0,0,0-1.42-1.06,5.41,5.41,0,0,0-2.27-.62,5,5,0,0,0-1.37.12,4.84,4.84,0,0,0-1.38.58,6.62,6.62,0,0,0-2.21,2.41,12.39,12.39,0,0,0-1.23,3.4c-.29,1.22-.49,2.5-.81,3.78a18.73,18.73,0,0,1-3,6.72,10.64,10.64,0,0,1-4.74,3.61,8.5,8.5,0,0,1-4,.52A14.79,14.79,0,0,1,478.27,51.89Z" style="fill:#455a64"></path><path d="M476.26,48.17a1.41,1.41,0,0,0,.39.13,8.85,8.85,0,0,0,1.11.2,9.67,9.67,0,0,0,1.66,0,11.94,11.94,0,0,0,2-.33,11.19,11.19,0,0,0,1.91-.71,10.35,10.35,0,0,0,1.43-.86,6.93,6.93,0,0,0,.86-.72,1.62,1.62,0,0,0,.28-.31s-.45.38-1.23.9a10.58,10.58,0,0,1-1.42.8,12.23,12.23,0,0,1-1.89.69,11.57,11.57,0,0,1-2,.33,11.17,11.17,0,0,1-1.64,0C476.84,48.27,476.27,48.13,476.26,48.17Z" style="fill:#455a64"></path><path d="M552.87,83.48l-28-4.37s.5,5.46-5.9,9c-8.23,4.47-15.5-2.61-15.5-2.61s-19.59,7.38-22.71,10.87-2.2,6.09-2.2,6.09l72.1.45Z" style="fill:#6366F1"></path><path d="M553.75,84.49c1.43.62,37.32,16.52,38.33,25.79,1.3,11.87-19.89,43.09-19.89,43.09l-7.92-7.91,8.19-30.79L546.66,101Z" style="fill:#ae7461"></path><path d="M549.38,83.21a18.25,18.25,0,0,1,5.39.77c2,.83,20.4,11.36,20.4,11.36l-9.69,18.27s-18.82-11.41-24.21-14.88C536.79,95.84,549.38,83.21,549.38,83.21Z" style="fill:#6366F1"></path><path d="M564.27,145.46s-6.4.71-7.86,1.75-5.51,5.13-7.88,6c0,0-.15,2,2.06,1.64a17.09,17.09,0,0,0,6.33-2.66c1.17-.94,1.83,0,1.57,1.06s-3.24,7.77-3.24,7.77-4.59,7.09-4.22,8.15a1.63,1.63,0,0,0,2.33.8c.43-.31,4.94-6,4.94-6l1.71-3.34s-5.15,11.4-4.66,12.5a1.62,1.62,0,0,0,2.14,1c.65-.29,3.08-5.93,3.08-5.93l3.15-6.25-3.9,12.54s-.21,1.23.77,1.57a1.41,1.41,0,0,0,1-.09,2.54,2.54,0,0,0,1.27-1.37l5-11.94s-2.57,7.09-2.17,7.62c.54.7,1.22.73,1.61.24.78-1,3.35-7.28,3.35-7.28L574.9,151l2.41-5.76-10.64-4.34Z" style="fill:#ae7461"></path><path d="M550.19,85.25a15.31,15.31,0,0,0-2.14,1.43,9.84,9.84,0,0,0-3,5.25,11.59,11.59,0,0,0,.38,6.1c.52,1.51,1.14,2.31,1.06,2.37s-.21-.16-.48-.53a8.27,8.27,0,0,1-.92-1.71,11,11,0,0,1-.55-6.34,9.49,9.49,0,0,1,3.3-5.42,6.21,6.21,0,0,1,1.68-1C549.93,85.26,550.18,85.22,550.19,85.25Z" style="fill:#263238"></path></g><g id="freepik--icon-2--inject-3"><path d="M316.22,371.64h35.93a8.7,8.7,0,0,1,8.7,8.7v6.34a0,0,0,0,1,0,0H307.52a0,0,0,0,1,0,0v-6.34A8.7,8.7,0,0,1,316.22,371.64Z" style="opacity:0.2"></path><rect x="299.53" y="377.01" width="52.07" height="52.07" rx="11.84" style="fill:#6366F1"></rect><g style="opacity:0.30000000000000004"><rect x="299.53" y="377.01" width="52.07" height="52.07" rx="11.84"></rect></g><rect x="294.07" y="377.01" width="52.07" height="52.07" rx="11.84" style="fill:#6366F1"></rect><polygon points="303.7 404.1 308.19 399.13 317.72 406.78 331.88 390.52 336.51 395.03 317.5 415.94 303.7 404.1" style="fill:#fff"></polygon></g><g id="freepik--icon-1--inject-3"><rect x="85.12" y="87.76" width="55.49" height="55.49" rx="11.84" style="fill:#6366F1"></rect><g style="opacity:0.30000000000000004"><rect x="85.12" y="87.76" width="55.49" height="55.49" rx="11.84"></rect></g><rect x="79.29" y="87.76" width="55.49" height="55.49" rx="11.84" style="fill:#6366F1"></rect><path d="M101.06,112.16,93.94,115l7.12,2.83v3.65l-11-4.55v-3.86l11-4.55Z" style="fill:#fff"></path><path d="M108.89,102.68h3.77l-7.36,23.57h-3.77Z" style="fill:#fff"></path><path d="M123.91,113.06v3.86l-11,4.55v-3.65L120,115l-7.11-2.83v-3.65Z" style="fill:#fff"></path></g><g id="freepik--speech-bubble--inject-3"><path d="M536.81,61.78l2.88-5.3a20.12,20.12,0,1,1,2.64,6.7v0Z" style="fill:#fff"></path><polygon points="548.72 53.79 551.62 50.64 557.67 55.58 567.01 45.4 569.95 48.31 557.48 61.44 548.72 53.79" style="fill:#6366F1"></polygon><path d="M536.81,61.78l.38.09,1.07.25,4.09,1-.09.1h0a.07.07,0,0,1,0-.1.08.08,0,0,1,.09,0,20.2,20.2,0,0,0,7,6.72,20,20,0,0,0,2.79,1.32c.5.2,1,.33,1.55.51a10.62,10.62,0,0,0,1.64.4,19.6,19.6,0,0,0,7.23.16,19.86,19.86,0,0,0,16.58-17.58,20.21,20.21,0,0,0,0-4.79,20.62,20.62,0,0,0-3.61-9,20.11,20.11,0,0,0-3.23-3.47,19.62,19.62,0,0,0-8.09-4.16,20,20,0,0,0-24.41,23.21c-.95,1.7-1.68,3-2.18,3.93l-.57,1c-.13.23-.21.35-.21.35s.05-.11.17-.33.3-.58.53-1l2.1-4v.05a19.89,19.89,0,0,1,.45-9.79,20.22,20.22,0,0,1,32.46-9.56,20.63,20.63,0,0,1,7,12.68,20.53,20.53,0,0,1,0,4.89,20.07,20.07,0,0,1-3.08,8.81,20.36,20.36,0,0,1-13.84,9,19.74,19.74,0,0,1-7.34-.19,11.2,11.2,0,0,1-1.66-.42c-.53-.18-1.07-.32-1.57-.52a20.93,20.93,0,0,1-2.81-1.36,20.21,20.21,0,0,1-7-6.85l.15-.07h0a.07.07,0,0,1,0,.1h0l-4.12-1.1-1.05-.28Z" style="fill:#263238"></path></g><g id="freepik--Button--inject-3"><rect x="347.91" y="77.23" width="65.39" height="31.19" rx="15.59" style="fill:#f5f5f5"></rect><path d="M397.7,108.41A17.06,17.06,0,0,0,404,107,15.4,15.4,0,0,0,403,78.4a15,15,0,0,0-3.42-.82c-.59-.08-1.2-.07-1.8-.11h-1.86l-32.37,0a15.38,15.38,0,0,0-7.95,2.24,15.36,15.36,0,0,0-5.48,20.53,16,16,0,0,0,4.78,5.26,15.5,15.5,0,0,0,6.23,2.47,47,47,0,0,0,6.35.22l5.91,0,17.82.08,4.85,0,1.26,0,.43,0a2.43,2.43,0,0,1-.43,0l-1.26,0-4.85,0-17.82.08-5.91,0a48.41,48.41,0,0,1-6.42-.2,15.83,15.83,0,0,1-6.42-2.53,16.36,16.36,0,0,1-4.94-5.4A15.85,15.85,0,0,1,363.5,77l32.37,0h1.86c.62.05,1.24,0,1.85.13a14.8,14.8,0,0,1,3.53.85,15.69,15.69,0,0,1-3.72,30.4c-.55,0-1,0-1.26,0A1.73,1.73,0,0,1,397.7,108.41Z" style="fill:#263238"></path><circle cx="397.57" cy="92.82" r="12.61" transform="translate(242.03 470.29) rotate(-80.75)" style="fill:#6366F1"></circle></g><g id="freepik--Colors--inject-3"><rect x="565.07" y="245.23" width="33.24" height="31.42" rx="2.03" style="opacity:0.2"></rect><rect x="568.05" y="241.17" width="87.7" height="31.42" rx="4.36" style="fill:#ebebeb"></rect><path d="M651.39,272.59s.2,0,.59-.07a4.24,4.24,0,0,0,1.62-.59,4.43,4.43,0,0,0,1.77-2.11c.45-1,.25-2.35.28-3.81,0-2.92,0-6.49,0-10.64,0-2.07,0-4.29,0-6.64,0-1.17,0-2.4,0-3.61a4.18,4.18,0,0,0-1.82-3,4.07,4.07,0,0,0-1.75-.67,18.74,18.74,0,0,0-2,0H645.8l-8.88,0-19.6,0-44.9,0a4.12,4.12,0,0,0-4,3.24,21,21,0,0,0-.09,2.88v20a4.79,4.79,0,0,0,.44,2.57,4.1,4.1,0,0,0,1.77,1.8,4.69,4.69,0,0,0,2.5.46h7.91l36.67.06,24.73.08,6.72.05,1.75,0,.59,0-.59,0-1.75,0-6.72.05-24.73.09-36.67.05H573a5.26,5.26,0,0,1-2.73-.52,4.57,4.57,0,0,1-2-2,5.44,5.44,0,0,1-.5-2.79v-5.58c0-3.75,0-7.58,0-11.46v-4.38a7.22,7.22,0,0,1,.11-1.52,4.6,4.6,0,0,1,4.52-3.66l44.9,0,19.6,0,8.88,0H650a17.65,17.65,0,0,1,2,.05,4.53,4.53,0,0,1,3.87,4.06c0,1.27,0,2.46,0,3.64,0,2.35,0,4.57,0,6.64,0,4.15,0,7.72,0,10.64-.05,1.44.14,2.79-.34,3.87a4.4,4.4,0,0,1-1.86,2.14,4.11,4.11,0,0,1-1.66.55A3.38,3.38,0,0,1,651.39,272.59Z" style="fill:#263238"></path><rect x="570.23" y="243.75" width="26.94" height="26.94" rx="5.21" style="fill:#455a64"></rect><rect x="598.31" y="243.75" width="26.94" height="26.94" rx="4.84" style="fill:#6366F1"></rect><rect x="626.53" y="243.75" width="26.94" height="26.94" rx="4.75" style="fill:#ffbf9d"></rect></g><g id="freepik--Dropper--inject-3"><path d="M593.12,204.54a3.37,3.37,0,0,0-1,2.4v14.49L589.71,224a2.5,2.5,0,0,0,0,3.47l1.38,1.39a2.5,2.5,0,0,0,3.47.07l2.53-2.35,1.19.89V201.17Z" style="opacity:0.2"></path><path d="M591.79,216.85V201.49a3.59,3.59,0,0,1,1.06-2.55l46.55-46.1,24,21.36-48,46.89a3.49,3.49,0,0,1-2.25.85l-16.07.34-2.69,2.5a2.63,2.63,0,0,1-3.67-.08l-1.47-1.47a2.65,2.65,0,0,1,0-3.68Z" style="fill:#e0e0e0"></path><path d="M614.41,177.58l-21.56,21.36a3.59,3.59,0,0,0-1.06,2.55v15.36l-2.57,2.7a2.65,2.65,0,0,0,0,3.68l1.47,1.47a2.63,2.63,0,0,0,3.67.08l2.69-2.5,16.07-.34a3.49,3.49,0,0,0,2.25-.85l30.41-29.73C645.65,191.52,614.41,177.59,614.41,177.58Z" style="fill:#6366F1"></path><rect x="648.25" y="132.81" width="11.46" height="54.6" rx="5.4" transform="translate(78.33 509.33) rotate(-45)" style="fill:#455a64"></rect><path d="M648.37,122.86h43.57a14.66,14.66,0,0,1,14.66,14.66v1.78A14.66,14.66,0,0,1,691.94,154H648.37a3.6,3.6,0,0,1-3.6-3.6v-23.9A3.6,3.6,0,0,1,648.37,122.86Z" transform="translate(100.04 518.32) rotate(-45)" style="fill:#455a64"></path><path d="M592.21,224.84a8.85,8.85,0,0,0-1.17-2.05,3.43,3.43,0,0,0-1.31-.91c-.4-.15-.68-.19-.68-.27s.29-.16.77-.09a2.81,2.81,0,0,1,1.61.92C592.44,223.56,592.38,224.88,592.21,224.84Z" style="fill:#263238"></path><path d="M671.3,169.32a6.82,6.82,0,0,1-1.09-.88c-.67-.59-1.63-1.47-2.79-2.57-2.34-2.19-5.51-5.28-9-8.74l-8.86-8.85-2.68-2.68a6.55,6.55,0,0,1-.94-1,7.11,7.11,0,0,1,1.08.88c.67.59,1.63,1.47,2.8,2.57,2.34,2.19,5.51,5.29,9,8.74l8.85,8.85,2.68,2.68A8.79,8.79,0,0,1,671.3,169.32Z" style="fill:#263238"></path><path d="M596.87,221.87a12.45,12.45,0,0,1-2.78-2.26,12.63,12.63,0,0,1-2.43-2.63,12.22,12.22,0,0,1,2.78,2.25A12.81,12.81,0,0,1,596.87,221.87Z" style="fill:#263238"></path><path d="M639.4,152.84s-.09.11-.29.31l-.86.9-3.38,3.41L622.31,170l-18.84,18.74L598,194.2,595.14,197l-1.44,1.43a6.34,6.34,0,0,0-1.28,1.49,3.56,3.56,0,0,0-.38,1.89v6.33c0,2.86,0,5.75,0,8.69v.1L592,217l-1.43,1.5-.73.77a6.52,6.52,0,0,0-.67.76,2.37,2.37,0,0,0-.32,1.87,2.24,2.24,0,0,0,.42.88,10.23,10.23,0,0,0,.73.77l.81.82a2.61,2.61,0,0,0,.85.62,2.43,2.43,0,0,0,2,0,3.49,3.49,0,0,0,.83-.64l.82-.76,1.61-1.5L597,222h.1l8.64-.18,4.22-.09,2.08,0a8.47,8.47,0,0,0,2-.15,3.21,3.21,0,0,0,.87-.37,4.65,4.65,0,0,0,.73-.64l1.44-1.41,2.85-2.78,5.5-5.37c7.16-7,13.56-13.2,18.92-18.42L657,180.3l3.44-3.3.9-.85a2.73,2.73,0,0,1,.32-.27s-.09.11-.28.31l-.87.88-3.38,3.37-12.55,12.38-18.84,18.51-5.49,5.38c-.94.91-1.89,1.84-2.84,2.78L616,220.91l-.36.35a2.81,2.81,0,0,1-.44.35,3.89,3.89,0,0,1-1,.43,8.51,8.51,0,0,1-2.11.17l-2.08,0-4.22.09-8.64.19.17-.07-1.61,1.5-.82.76a3.4,3.4,0,0,1-1,.72,2.93,2.93,0,0,1-2.44.05,3.08,3.08,0,0,1-1-.73l-.82-.83a8.85,8.85,0,0,1-.78-.82,2.79,2.79,0,0,1-.51-1.07,2.88,2.88,0,0,1,.4-2.27,6.12,6.12,0,0,1,.73-.84l.72-.77,1.43-1.5-.07.18V203.92c0-.7,0-1.4,0-2.09a4.06,4.06,0,0,1,.44-2.12,3.81,3.81,0,0,1,.64-.89l.73-.73,1.45-1.42,2.84-2.82c1.88-1.85,3.72-3.66,5.5-5.43,7.16-7,13.56-13.37,18.92-18.66l12.67-12.44,3.45-3.34.9-.86A4.08,4.08,0,0,1,639.4,152.84Z" style="fill:#263238"></path></g><g id="freepik--Gears--inject-3"><path d="M569.68,354.14a37.19,37.19,0,0,1,9.08-3.94l1.87-9,15.19-.27,2.19,8.92a37.22,37.22,0,0,1,9.22,3.62l7.68-5L625.84,359l-4.76,7.84a37.42,37.42,0,0,1,3.94,9.09l9,1.87.26,15.19-8.92,2.19a37.15,37.15,0,0,1-3.62,9.21l5,7.68L616.22,423l-7.85-4.76a36.91,36.91,0,0,1-9.09,3.95l-1.87,9-15.19.27L580,422.54a36.8,36.8,0,0,1-9.21-3.63l-7.68,5-10.93-10.56,4.76-7.85a36.84,36.84,0,0,1-4-9.08l-9-1.87-.27-15.19,8.92-2.19a37.4,37.4,0,0,1,3.63-9.22l-5-7.67,10.55-10.93,7.85,4.75Zm8.1,20.24a16.3,16.3,0,1,0,23-.4A16.3,16.3,0,0,0,577.78,374.38Z" style="fill:#e0e0e0"></path><path d="M569.68,354.14a37.19,37.19,0,0,1,9.08-3.94l1.87-9,15.19-.27,2.19,8.92a37.22,37.22,0,0,1,9.22,3.62l7.68-5L625.84,359l-4.76,7.84a37.42,37.42,0,0,1,3.94,9.09l9,1.87.26,15.19-8.92,2.19a37.15,37.15,0,0,1-3.62,9.21l5,7.68L616.22,423l-7.85-4.76a36.91,36.91,0,0,1-9.09,3.95l-1.87,9-15.19.27L580,422.54a36.8,36.8,0,0,1-9.21-3.63l-7.68,5-10.93-10.56,4.76-7.85a36.84,36.84,0,0,1-4-9.08l-9-1.87-.27-15.19,8.92-2.19a37.4,37.4,0,0,1,3.63-9.22l-5-7.67,10.55-10.93,7.85,4.75Zm8.1,20.24a16.3,16.3,0,1,0,23-.4A16.3,16.3,0,0,0,577.78,374.38Z" style="fill:none"></path><path d="M577.78,374.38a1.13,1.13,0,0,1,.17-.2l.55-.55a7.79,7.79,0,0,1,1-.83,10.85,10.85,0,0,1,1.4-1,15.67,15.67,0,0,1,4.33-1.94,16.42,16.42,0,0,1,19.16,8.59A15.26,15.26,0,0,1,605.8,383a18.14,18.14,0,0,1,.25,2.46,17.58,17.58,0,0,1-.16,2.5A16.44,16.44,0,0,1,592.3,402a17.64,17.64,0,0,1-2.5.25,18.15,18.15,0,0,1-2.46-.16,15.44,15.44,0,0,1-4.57-1.3,16.35,16.35,0,0,1-9.54-12.59,16.2,16.2,0,0,1,.28-6.26,15.38,15.38,0,0,1,1.78-4.39,10.88,10.88,0,0,1,1-1.44,7.55,7.55,0,0,1,.8-1l.53-.57a1.24,1.24,0,0,1,.2-.18,25.27,25.27,0,0,0-2.31,3.27,15.55,15.55,0,0,0-1.68,4.35,16.31,16.31,0,0,0-.2,6.14A16.06,16.06,0,0,0,583,400.35a15,15,0,0,0,4.44,1.25,18.82,18.82,0,0,0,2.39.15,19.85,19.85,0,0,0,2.42-.25,16,16,0,0,0,13.17-13.65,18,18,0,0,0,.17-2.43,18.47,18.47,0,0,0-.24-2.37,15.1,15.1,0,0,0-1.4-4.4,16.05,16.05,0,0,0-12.53-8.93,16.18,16.18,0,0,0-6.13.41A15.56,15.56,0,0,0,581,372,25.9,25.9,0,0,0,577.78,374.38Z" style="fill:#263238"></path><path d="M569.68,354.14s-.17-.08-.51-.28l-1.5-.89-5.88-3.51.1,0-10.52,11,0-.17c1.52,2.32,3.23,4.91,5.05,7.67l0,.08,0,.08a37.29,37.29,0,0,0-3.59,9.18l0,.1-.1,0-8.91,2.2.14-.19q.13,7.19.28,15.19l-.16-.19,9,1.86.13,0,0,.13a36.86,36.86,0,0,0,3.93,9l.07.11-.07.12-4.75,7.85,0-.28,10.94,10.54-.3,0,7.67-5,.13-.09.13.08a37.62,37.62,0,0,0,9.15,3.6l.15,0,0,.15c.68,2.79,1.43,5.84,2.19,8.92l-.25-.2,15.19-.27-.25.21c.59-2.84,1.23-5.9,1.87-9l0-.16.15,0a36.8,36.8,0,0,0,9-3.91h0l.14-.08.13.08,7.85,4.76-.32,0,10.55-10.93,0,.32-5-7.68-.08-.12.07-.14a36.86,36.86,0,0,0,3.61-9.15l0-.15.15,0,8.92-2.18L634,393q-.12-7.78-.25-15.19l.19.23-9-1.88-.14,0,0-.14a37.07,37.07,0,0,0-3.92-9l-.07-.12.07-.11,4.77-7.85,0,.27L614.77,348.6l.25,0-7.69,5-.09.06-.1-.05A37.53,37.53,0,0,0,598,350l-.1,0,0-.1c-.78-3.24-1.49-6.17-2.17-8.92l.16.11-15.19.23.11-.09c-.76,3.6-1.39,6.54-1.91,9v.05l-.05,0a38.85,38.85,0,0,0-6.94,2.7c-.73.37-1.27.68-1.63.87s-.53.29-.53.29l.51-.33c.35-.2.88-.52,1.61-.9a35.48,35.48,0,0,1,6.94-2.79l-.06.06c.5-2.45,1.1-5.4,1.84-9l0-.09h.09l15.19-.3h.12l0,.12c.68,2.76,1.41,5.68,2.21,8.92l-.13-.13a37.77,37.77,0,0,1,9.27,3.63h-.19l7.67-5,.13-.09.11.11,11,10.54.12.12-.09.15L621.27,367v-.23a37.12,37.12,0,0,1,4,9.14l-.18-.17,9,1.87.19,0v.2q.13,7.41.28,15.19v.2l-.19,0-8.92,2.19.19-.18a37.72,37.72,0,0,1-3.65,9.28v-.27l5,7.68.12.17-.15.15q-5.19,5.4-10.55,10.93l-.14.15-.18-.1q-3.9-2.37-7.85-4.76h.26a37.28,37.28,0,0,1-9.14,4l.19-.2c-.65,3.09-1.28,6.16-1.88,9l0,.2h-.21l-15.19.26H582l0-.2c-.75-3.08-1.5-6.13-2.18-8.92l.18.18a37.11,37.11,0,0,1-9.27-3.65H571l-7.68,5-.16.11-.14-.14-10.92-10.56-.14-.13.1-.16,4.77-7.84v.23a37.5,37.5,0,0,1-4-9.14l.17.15-9-1.88-.16,0v-.17c-.08-5.33-.17-10.41-.24-15.19v-.15l.15,0,8.92-2.18-.12.13a37.19,37.19,0,0,1,3.65-9.25v.16c-1.81-2.77-3.5-5.36-5-7.69l-.06-.09.07-.08,10.59-10.89,0-.05.06,0,5.81,3.58,1.49.93Z" style="fill:#263238"></path><path d="M649.16,397a14.92,14.92,0,0,1,3.65-1.59l.75-3.61,6.1-.11.88,3.58a15,15,0,0,1,3.7,1.46l3.08-2,4.39,4.24-1.91,3.15a14.73,14.73,0,0,1,1.58,3.65l3.61.75.11,6.1-3.58.87a14.85,14.85,0,0,1-1.46,3.7l2,3.09-4.23,4.39-3.15-1.91a15.46,15.46,0,0,1-3.65,1.58l-.75,3.61-6.1.11-.88-3.58a15,15,0,0,1-3.7-1.46l-3.08,2-4.39-4.24,1.91-3.15a14.76,14.76,0,0,1-1.59-3.65l-3.61-.75-.1-6.1,3.58-.87a14.82,14.82,0,0,1,1.45-3.7l-2-3.09L646,395l3.15,1.92Zm3.25,8.12a6.55,6.55,0,1,0,9.26-.16A6.54,6.54,0,0,0,652.41,405.08Z" style="fill:#e0e0e0"></path><path d="M649.16,397a14.92,14.92,0,0,1,3.65-1.59l.75-3.61,6.1-.11.88,3.58a15,15,0,0,1,3.7,1.46l3.08-2,4.39,4.24-1.91,3.15a14.73,14.73,0,0,1,1.58,3.65l3.61.75.11,6.1-3.58.87a14.85,14.85,0,0,1-1.46,3.7l2,3.09-4.23,4.39-3.15-1.91a15.46,15.46,0,0,1-3.65,1.58l-.75,3.61-6.1.11-.88-3.58a15,15,0,0,1-3.7-1.46l-3.08,2-4.39-4.24,1.91-3.15a14.76,14.76,0,0,1-1.59-3.65l-3.61-.75-.1-6.1,3.58-.87a14.82,14.82,0,0,1,1.45-3.7l-2-3.09L646,395l3.15,1.92Zm3.25,8.12a6.55,6.55,0,1,0,9.26-.16A6.54,6.54,0,0,0,652.41,405.08Z" style="fill:none"></path><path d="M652.41,405.08a1.47,1.47,0,0,1,.27-.32,5,5,0,0,1,.94-.77,6.45,6.45,0,0,1,4.29-1,6.73,6.73,0,0,1,5.94,7.59,6.73,6.73,0,0,1-5.58,5.78,6.61,6.61,0,0,1-3.91-.51,6.69,6.69,0,0,1-3.88-5.16,6.5,6.5,0,0,1,.88-4.33,5,5,0,0,1,.74-1c.19-.2.3-.29.31-.28s-.38.44-.87,1.34a6.6,6.6,0,0,0-.7,4.17,6.38,6.38,0,0,0,3.71,4.79,6.27,6.27,0,0,0,3.63.44,6.32,6.32,0,0,0-.32-12.5,6.51,6.51,0,0,0-4.14.84C652.84,404.68,652.45,405.12,652.41,405.08Z" style="fill:#263238"></path><path d="M649.16,397s-.07,0-.2-.1l-.61-.34L646,395.12l.1,0-4.2,4.42v-.16l2,3.07.05.08,0,.08a14.84,14.84,0,0,0-1.43,3.67l0,.1-.1,0-3.58.89.14-.18c0,1.92.08,4,.13,6.1l-.16-.2,3.61.74.12,0,0,.13a14.92,14.92,0,0,0,1.57,3.59l.07.11-.07.12-1.9,3.15,0-.28,4.39,4.23-.3,0,3.08-2,.13-.08.13.07a14.54,14.54,0,0,0,3.64,1.43l.15,0,0,.15.89,3.58-.26-.2,6.1-.11-.25.21c.24-1.14.5-2.37.75-3.61l0-.16.15,0a14.75,14.75,0,0,0,3.58-1.56h.32l0,0,.1.06.19.12.4.24.79.48,1.57.95-.32.05L671.9,420l0,.32-2-3.09-.08-.12.07-.14a14.36,14.36,0,0,0,1.43-3.64l0-.14.15,0,3.58-.87-.19.24c0-2.08-.06-4.12-.1-6.1l.19.23-3.6-.76-.14,0,0-.14a14.67,14.67,0,0,0-1.55-3.6l-.07-.11.07-.12,1.91-3.15,0,.27-4.38-4.25.25,0-3.09,2-.09.06-.1-.06a15.08,15.08,0,0,0-3.65-1.45l-.1,0,0-.1c-.31-1.3-.59-2.47-.86-3.58l.15.12-6.1.07.11-.1c-.31,1.44-.56,2.62-.78,3.61v.05h0a15.77,15.77,0,0,0-2.79,1.06l-.66.34c-.15.08-.22.11-.22.1l.2-.14c.14-.09.35-.22.64-.37a14.09,14.09,0,0,1,2.79-1.15l-.06.06c.19-1,.43-2.17.72-3.61v-.09h.1l6.1-.14h.12l0,.12c.28,1.1.57,2.27.89,3.57l-.12-.12a15,15,0,0,1,3.75,1.46h-.19l3.07-2,.13-.08.12.11,4.4,4.22.12.12-.09.15-1.9,3.15v-.23a15.16,15.16,0,0,1,1.62,3.7l-.18-.16,3.61.74.19,0v.19q.06,3,.12,6.1v.2l-.19.05-3.58.88.18-.19a15.13,15.13,0,0,1-1.47,3.77V417c.66,1,1.34,2.05,2,3.09l.11.17-.14.15L668,424.79l-.14.15-.18-.11c-.52-.32-1-.64-1.57-.95l-.79-.48-.4-.24-.19-.12-.1-.06,0,0,0,0h.25a15.24,15.24,0,0,1-3.71,1.61l.18-.2c-.26,1.24-.51,2.47-.75,3.61l0,.21h-.21l-6.1.1H654l0-.2c-.3-1.24-.6-2.46-.88-3.58l.19.18a15,15,0,0,1-3.76-1.48h.25l-3.08,2-.16.11-.14-.13L642,420.91l-.14-.13.1-.16c.67-1.09,1.32-2.17,1.92-3.14v.23a14.87,14.87,0,0,1-1.6-3.71l.16.16-3.61-.77-.16,0v-.16c0-2.14-.06-4.18-.09-6.1V407l.14,0,3.59-.86-.13.12a15.22,15.22,0,0,1,1.49-3.73v.16c-.73-1.11-1.4-2.16-2-3.09l-.06-.09.08-.08L646,395l0-.05,0,0,2.31,1.46.6.38Z" style="fill:#263238"></path></g><g id="freepik--character-2--inject-3"><rect x="378.19" y="211.06" width="94.97" height="80.41" rx="7.89" style="fill:#fff"></rect><path d="M465.27,291.47a8.84,8.84,0,0,0,3.29-.79,7.86,7.86,0,0,0,3.11-2.63,8.31,8.31,0,0,0,1.39-5.33c0-8.55-.05-20.89-.08-36.13,0-7.63,0-16,0-25,0-1.12,0-2.28,0-3.38a7.49,7.49,0,0,0-1-3.16,7.65,7.65,0,0,0-5.48-3.72,32.35,32.35,0,0,0-3.57-.09H451.71l-65.62,0a7.7,7.7,0,0,0-6.8,4.16,8.17,8.17,0,0,0-.69,2,9.58,9.58,0,0,0-.15,2.08v4.27q0,8.51,0,16.74c0,11,0,21.57,0,31.65,0,2.52,0,5,0,7.47v3.66a7.81,7.81,0,0,0,.68,3.42,7.67,7.67,0,0,0,5.07,4.27,13,13,0,0,0,3.37.25h3.4l24.95,0,36.13.09,9.82,0,2.56,0,.87,0s-.3,0-.87,0l-2.56,0-9.82.05-36.13.08-24.95,0h-3.4a13.76,13.76,0,0,1-3.48-.26,8.14,8.14,0,0,1-5.38-4.51,8.3,8.3,0,0,1-.72-3.61c0-1.21,0-2.43,0-3.66v-7.47c0-10.08,0-20.67,0-31.65v-21a10.78,10.78,0,0,1,.16-2.18,8.5,8.5,0,0,1,.73-2.09,8.2,8.2,0,0,1,7.27-4.45l65.62,0h11.13a29.45,29.45,0,0,1,3.63.1,8.11,8.11,0,0,1,5.81,3.94,7.93,7.93,0,0,1,1.06,3.35c.08,1.18,0,2.29,0,3.42,0,9,0,17.32,0,25,0,15.24-.06,27.58-.08,36.13a9.88,9.88,0,0,1-.31,3,8.48,8.48,0,0,1-1.15,2.4,8,8,0,0,1-3.19,2.64,7.77,7.77,0,0,1-2.47.66C465.56,291.48,465.27,291.47,465.27,291.47Z" style="fill:#263238"></path><path d="M463.16,288.3s.27,0,.8-.08a5.58,5.58,0,0,0,2.18-.81,5.72,5.72,0,0,0,2.38-2.88c.57-1.41.3-3.2.35-5.17,0-7.91,0-19.32-.08-33.43,0-7.05,0-14.78,0-23.08a24.24,24.24,0,0,0-.1-3.09,5.67,5.67,0,0,0-1.36-2.71,5.44,5.44,0,0,0-2.61-1.62,11.65,11.65,0,0,0-3.21-.22H447.85l-60.71,0h-2a2.5,2.5,0,0,0-1.66.68,2.54,2.54,0,0,0-.82,1.58c-.05.6,0,1.31,0,2v23.41c0,10.16,0,19.95,0,29.29v6.91c0,1.13,0,2.26,0,3.38v1.68a4,4,0,0,0,.23,1.55,3.58,3.58,0,0,0,2.1,2.14,3.89,3.89,0,0,0,1.52.25h7.94l23.09,0,33.42.08,9.09.05,2.36,0,.81,0-.81,0-2.36,0-9.09.05-33.42.08-23.09,0h-7.94a4.42,4.42,0,0,1-1.68-.27,4.09,4.09,0,0,1-2.37-2.41,4.59,4.59,0,0,1-.26-1.71v-5.06c0-2.28,0-4.58,0-6.91,0-9.34,0-19.13,0-29.29q0-7.6,0-15.49v-7.92c0-.68,0-1.3,0-2a3.11,3.11,0,0,1,3-2.71h2l60.71,0h15.29a6.43,6.43,0,0,1,1.68.24,6.08,6.08,0,0,1,4.27,4.69,22.67,22.67,0,0,1,.1,3.17c0,8.3,0,16,0,23.08,0,14.11-.06,25.52-.08,33.43,0,1,0,1.92,0,2.8a6.18,6.18,0,0,1-.4,2.43,5.83,5.83,0,0,1-2.46,2.91,5.54,5.54,0,0,1-2.23.77A4.11,4.11,0,0,1,463.16,288.3Z" style="fill:#263238"></path><line x1="382.95" y1="287.36" x2="467.87" y2="215.92" style="fill:#fff"></line><path d="M467.87,215.92c.1.11-18.84,16.2-42.29,35.92S383,287.47,383,287.36s18.84-16.19,42.3-35.92S467.78,215.81,467.87,215.92Z" style="fill:#263238"></path><path d="M382.94,215.87c.09-.11,19.18,15.55,42.63,35s42.39,35.26,42.3,35.37-19.17-15.54-42.63-35S382.85,216,382.94,215.87Z" style="fill:#263238"></path><path d="M494.61,194.47a24.09,24.09,0,0,0-2.73-6.29,6,6,0,0,0-.88-10.12,2.06,2.06,0,0,0,.16-2,6.19,6.19,0,0,0-9.1-5.57A11.95,11.95,0,0,0,465.12,168c-9.28-7.76-15.09-7.2-23.46-4.12-2.16.79-5.21,3.05-6,5.21a24,24,0,0,0-5.41,1.85,5,5,0,0,0-2.8,2.58c-.41,1.24.55,2.91,1.83,2.69-1.53.79-3.15,1.66-4,3.17s-.4,3.83,1.25,4.35a27.79,27.79,0,0,0-3.82,8.36,3.92,3.92,0,0,0-.32.65,3.5,3.5,0,0,0,1.53,6.37,4.54,4.54,0,0,0,2.16,8.57A5.94,5.94,0,0,0,432,218a12.2,12.2,0,0,0,13.07,5.28,26,26,0,0,1,3.74-1c1.58-.16,3.17.29,4.73.05,2.62-.4,4.6-2.71,5.41-5.23,2.74-.29,5.59-.7,8.71-1.25,4.63,4.2,9.31.77,8.73-1,2.71-.15,4.11.22,6.62-.82a9.58,9.58,0,0,0,3.27-1.88c.11-.14.24-.29.39-.46a4.36,4.36,0,0,0-.45-6,1,1,0,0,1-.28-.7,5.08,5.08,0,0,1,3.12-.25,3.89,3.89,0,0,0,3-.56c.8-.71.63-2.37-.43-2.49a2.78,2.78,0,0,0,.14-3c.85.74,2.31.14,2.8-.89A4.86,4.86,0,0,0,494.61,194.47Z" style="fill:#263238"></path><path d="M467.36,178.29,453.18,172c-5.63-1.42-10.43,5.07-11.61,10.76-1.31,6.31-2.66,14.07-2.58,18.94a14.7,14.7,0,0,0,8.43,13.19l-.79,5.84c.3,4.59,5.08,5.13,5.08,5.13,13.08,1.56,14.67-5.76,14.67-5.76l3.45-36.29C470.11,182.1,469.07,178.72,467.36,178.29Z" style="fill:#ffbf9d"></path><path d="M449.44,198.28a8.9,8.9,0,0,0-2.09-.69c-.33-.09-.64-.2-.67-.44a1.77,1.77,0,0,1,.37-1c.43-.77.89-1.58,1.36-2.43a43.68,43.68,0,0,0,3.2-6.39,45,45,0,0,0-3.7,6.12l-1.33,2.45a2,2,0,0,0-.36,1.29.89.89,0,0,0,.48.58,3.12,3.12,0,0,0,.57.16A8.92,8.92,0,0,0,449.44,198.28Z" style="fill:#263238"></path><path d="M447.42,214.92a31.81,31.81,0,0,0,12.17-2.75s-2.81,5.84-12.53,5.65Z" style="fill:#ff9a6c"></path><path d="M456.52,184.06c.08.38,1.42.39,2.94.8s2.71,1,3,.71c.11-.14-.06-.5-.52-.92a5,5,0,0,0-2.11-1.1,5.1,5.1,0,0,0-2.38-.06C456.81,183.64,456.49,183.88,456.52,184.06Z" style="fill:#263238"></path><path d="M443.8,182.61c.19.33,1.14.15,2.23.29s2,.49,2.25.21,0-.46-.35-.8a3.09,3.09,0,0,0-1.75-.75,3,3,0,0,0-1.86.35C443.88,182.16,443.71,182.45,443.8,182.61Z" style="fill:#263238"></path><path d="M436.81,187a6.64,6.64,0,0,1,2-4,22.76,22.76,0,0,0,1.95-1.54c1.22-1.32,1.26-3.3,1.88-5a7.32,7.32,0,0,1,5-4.45c1.86-.47,3.9-.18,5.67-.91,1.32-.55,2.38-1.6,3.72-2.07,2.62-.9,5.4.67,7.63,2.31.29,1.92-1.06,3.43-2.36,4.88a6.74,6.74,0,0,1-5.2,2.22c-1.51-.06-3.22-.57-4.38.4s-1,3-2,4.25c-1.48,1.71-4.38.73-6.44,1.68-1.59.73-2.4,2.47-3.31,4s-2.38,3-4.12,2.76A19.69,19.69,0,0,1,436.81,187Z" style="fill:#263238"></path><path d="M460.55,174.42A33.84,33.84,0,0,1,473.18,178a6.25,6.25,0,0,1,3,2.49,6.12,6.12,0,0,1,.35,3.4c-.39,3.59-2.27,7.85-4,11l-4.75,2.26c-3.38-1.16-1.21-7-.75-10a7.14,7.14,0,0,1-3.53-6.65A7.84,7.84,0,0,1,460.55,174.42Z" style="fill:#263238"></path><path d="M468,195.89c.33-2,2.9-2.2,4.56-1,.92.68,1.54,1.9,1.2,4.07-.9,5.8-6.53,3.7-6.51,3.53S467.57,198.28,468,195.89Z" style="fill:#ffbf9d"></path><path d="M469.32,200.6s.09.09.24.19a1,1,0,0,0,.76.13,2.54,2.54,0,0,0,1.5-2.06,3.32,3.32,0,0,0-.06-1.48,1.19,1.19,0,0,0-.64-.9.53.53,0,0,0-.64.19c-.1.15-.08.27-.11.27s-.11-.11,0-.34a.64.64,0,0,1,.29-.33.76.76,0,0,1,.58-.06,1.42,1.42,0,0,1,.91,1.06,3.43,3.43,0,0,1,.1,1.67,2.64,2.64,0,0,1-1.86,2.27,1.1,1.1,0,0,1-.9-.3C469.31,200.74,469.29,200.61,469.32,200.6Z" style="fill:#ff9a6c"></path><path d="M454.62,193.24a1.27,1.27,0,0,0,1,1.44,1.22,1.22,0,0,0,1.46-1,1.28,1.28,0,0,0-1-1.45A1.22,1.22,0,0,0,454.62,193.24Z" style="fill:#263238"></path><path d="M443,191.93a1.28,1.28,0,0,0,1,1.44,1.21,1.21,0,0,0,1.46-1,1.28,1.28,0,0,0-1-1.44A1.21,1.21,0,0,0,443,191.93Z" style="fill:#263238"></path><path d="M443.51,187c.1.2,1.13-.36,2.36-.1s2,1.15,2.14,1,0-.41-.31-.82a3,3,0,0,0-1.67-1,2.86,2.86,0,0,0-1.93.3C443.65,186.65,443.45,186.94,443.51,187Z" style="fill:#263238"></path><path d="M455.27,189.2c.15.21,1.3-.52,2.79-.36s2.5,1.07,2.68.89-.05-.45-.48-.87a3.62,3.62,0,0,0-2.13-1,3.52,3.52,0,0,0-2.24.53C455.39,188.77,455.2,189.1,455.27,189.2Z" style="fill:#263238"></path><path d="M455,201.72a1.86,1.86,0,0,0-1.73-1.64,2,2,0,0,0-1.62.87,2.42,2.42,0,0,0-.31,1.84v.13a2.12,2.12,0,0,0,2.3.8A2,2,0,0,0,455,201.72Z" style="fill:#ff9a6c"></path><path d="M450.35,202.82c0-.21,1.45,0,2.67-1s1.33-2.58,1.53-2.56.22.39.13,1a3.66,3.66,0,0,1-1.2,2.15,3.18,3.18,0,0,1-2.23.75C450.65,203.14,450.32,202.92,450.35,202.82Z" style="fill:#263238"></path><path d="M420.75,446.49l1.73,18.05s-19.67,7.35-19.88,11l37.19.1,0-2.72-1.56-9.28-2.3-18Z" style="fill:#455a64"></path><path d="M433.68,461.74a1.55,1.55,0,0,1,1.08,1.77A1.49,1.49,0,0,1,433,464.6a1.64,1.64,0,0,1-1.13-1.88,1.55,1.55,0,0,1,1.94-.93" style="fill:#e0e0e0"></path><path d="M439.79,475.63l0-2.72-35.68.69s-1.69.74-1.49,1.93Z" style="fill:#263238"></path><path d="M421.87,464.35c0,.19.93.27,1.85.86s1.4,1.38,1.58,1.31-.11-1.15-1.24-1.85S421.83,464.18,421.87,464.35Z" style="fill:#263238"></path><path d="M417.88,466c0,.18.76.5,1.4,1.28s.81,1.62,1,1.61.3-1.06-.51-2S417.88,465.84,417.88,466Z" style="fill:#263238"></path><path d="M415.62,470.8c.17,0,.43-.89-.05-1.91s-1.35-1.42-1.43-1.26.46.69.84,1.53S415.44,470.78,415.62,470.8Z" style="fill:#263238"></path><path d="M420.55,460c.08.17.93-.09,2,0s1.87.4,2,.24-.7-.82-1.94-.89S420.46,459.86,420.55,460Z" style="fill:#263238"></path><path d="M466.46,447l1.6,17.75s-19.38,7.1-19.61,10.67l36.54.32v-2.67l-1.48-9.13-2.15-17.73Z" style="fill:#455a64"></path><path d="M479.07,462.06a1.53,1.53,0,0,1,1.05,1.75,1.46,1.46,0,0,1-1.72,1.05,1.6,1.6,0,0,1-1.1-1.85,1.51,1.51,0,0,1,1.91-.9" style="fill:#e0e0e0"></path><path d="M485,475.74v-2.67l-35.06.46s-1.66.72-1.48,1.89Z" style="fill:#263238"></path><path d="M467.45,464.55c0,.19.92.27,1.82.86s1.37,1.36,1.54,1.29-.1-1.13-1.2-1.82S467.41,464.39,467.45,464.55Z" style="fill:#263238"></path><path d="M463.52,466.16c0,.18.75.49,1.37,1.27s.79,1.59,1,1.58.3-1-.48-2S463.53,466,463.52,466.16Z" style="fill:#263238"></path><path d="M461.28,470.85c.16,0,.42-.87,0-1.88s-1.32-1.4-1.4-1.25.45.69.82,1.52S461.1,470.83,461.28,470.85Z" style="fill:#263238"></path><path d="M466.18,460.28c.08.17.92-.08,1.95,0s1.83.41,1.93.25-.68-.81-1.89-.88S466.09,460.14,466.18,460.28Z" style="fill:#263238"></path><path d="M420,289.51S411.13,315,410.83,334s-.61,49.2,3.34,82.52S420,463.27,420,463.27H440a393.26,393.26,0,0,0,1.83-39.55c-.31-18.68-1.77-24.6,0-45.15s4.63-32.9,7.62-39.13c0,0,8.28-9.84,8.89-23.35A65.78,65.78,0,0,0,454.21,291Z" style="fill:#263238"></path><path d="M437.78,325.33c.33,1,6.29,42.89,10.63,61.36s9.18,23.35,10,38.37c1,17.28,5.71,38.21,5.71,38.21h21.37s-3-31.93-6-56.9-7.34-55.73-6.68-65,2.34-20.63,0-33.57-7.39-16.34-7.39-16.34l-18.12-.82Z" style="fill:#263238"></path><path d="M457.89,301.38a5.39,5.39,0,0,1,.33.65,13.57,13.57,0,0,1,.73,2,26.1,26.1,0,0,1,.7,7.65,49.92,49.92,0,0,1-1.76,11.27,35.94,35.94,0,0,1-2.33,6.34,44,44,0,0,1-3.86,6.12c-2.9,4-4.34,8.56-5.42,12.68a88.61,88.61,0,0,0-2,11.17c-.39,3.21-.63,5.82-.81,7.63q-.13,1.31-.21,2.07a3.49,3.49,0,0,1-.1.72,5.6,5.6,0,0,1,0-.72c0-.52.08-1.22.13-2.09.12-1.81.31-4.42.67-7.65A85.25,85.25,0,0,1,445.88,348a53.18,53.18,0,0,1,2-6.43,31.6,31.6,0,0,1,1.49-3.26,35.24,35.24,0,0,1,1.94-3.13,44.49,44.49,0,0,0,3.84-6.07,36.13,36.13,0,0,0,2.33-6.25,52.59,52.59,0,0,0,1.84-11.17,27.35,27.35,0,0,0-.56-7.6,16.39,16.39,0,0,0-.64-2A4.31,4.31,0,0,1,457.89,301.38Z" style="fill:#455a64"></path><path d="M466.38,220.13,449.8,218.8s-18.51,14.74-22.3,33.52-8.13,37.53-8.13,37.53L453.14,294a39,39,0,0,0,10.57-.15l3.52-.53-2.89-11.92s5.35-22.55,7.44-31.05C476.32,231.91,466.38,220.13,466.38,220.13Z" style="fill:#6366F1"></path><g style="opacity:0.30000000000000004"><path d="M434.58,256l-13.69,26.81c3.54-.12,6.07-1.6,8.48-4.2a38.25,38.25,0,0,0,5.68-8.95c4.07-8,8-16.34,8.81-25.29A97.17,97.17,0,0,0,434.58,256Z"></path></g><path d="M471.32,226.11s17.19,39.95,15.78,45.25c-1.58,6-6.89,8.19-10.53,7.08s-12.79-7.53-12.79-7.53Z" style="fill:#6366F1"></path><path d="M381.72,244.69a8.28,8.28,0,0,1,1.55.63,7.78,7.78,0,0,0-1.26-2.94,9.1,9.1,0,0,1-1.09-2.45c-.12-1.65,1.15-2.88,2.21-1a14.36,14.36,0,0,0,2.06,2.53c2.33,2.27,9.85,10.46,9.85,10.46l-5.81,7.58a61.32,61.32,0,0,1-11.06-1.66c-3.09-.94-4.3-2.1-4.32-2.82s1.2-1.15,1.2-1.15a3.46,3.46,0,0,1-.62-2.07c.15-1,1.47-1.42,1.47-1.42a5,5,0,0,1-.48-1.86c0-1,1.22-2.17,1.22-2.17a1.66,1.66,0,0,1-.91-2.55c.32-.5,1.28-.76,3.06-.19C379.89,244,381.72,244.69,381.72,244.69Z" style="fill:#ffbf9d"></path><path d="M394,249.33c.2.3,19.94,11.58,19.94,11.58s9.24-17.58,12.19-23.72,6.52-14.7,11.25-17.35,12.47-1,12.47-1l-3.15,22.89L439,258.19s-9.09,18.17-14.08,22.4c-4.54,3.85-11.59,2.31-14.81.42s-24.3-20-24.3-20Z" style="fill:#6366F1"></path><path d="M446.65,242a4.37,4.37,0,0,1-.2.54L445.8,244c-.58,1.32-1.43,3.23-2.52,5.57-2.18,4.68-5.32,11.09-9,18a71.74,71.74,0,0,1-5.71,9.55,19.85,19.85,0,0,1-3.41,3.49,11.94,11.94,0,0,1-3.78,2,12.59,12.59,0,0,1-6.1.31,11.22,11.22,0,0,1-1.61-.43,2.23,2.23,0,0,1-.54-.23s.76.25,2.18.49a13.06,13.06,0,0,0,6-.45,11.69,11.69,0,0,0,3.64-2,19.84,19.84,0,0,0,3.31-3.45,72.15,72.15,0,0,0,5.64-9.51c3.72-6.93,6.9-13.31,9.15-18l2.66-5.5.73-1.5A2.07,2.07,0,0,1,446.65,242Z" style="fill:#263238"></path><path d="M472.28,242.47a6.21,6.21,0,0,1-.09,1.32c-.11.84-.28,2.05-.51,3.55-.47,3-1.17,7.12-2,11.65s-1.72,8.64-2.42,11.59c-.36,1.47-.65,2.66-.88,3.48a7.44,7.44,0,0,1-.4,1.25,7.42,7.42,0,0,1,.22-1.3c.2-.91.44-2.09.74-3.5.62-3,1.43-7.06,2.29-11.6s1.59-8.57,2.16-11.62c.26-1.43.48-2.61.65-3.53A11.06,11.06,0,0,1,472.28,242.47Z" style="fill:#263238"></path><path d="M486.53,187.69a16.59,16.59,0,0,1,7.65,1.65,7.81,7.81,0,0,1,4.3,6.22c.11,2.63-2,5.35-4.58,5.42a6.22,6.22,0,0,1-2.71,11.8c2.82,1.37,2.94,5.71.92,8.11s-5.3,3.28-8.4,3.77a11.41,11.41,0,0,1-20.52-.94,6.78,6.78,0,0,1-.25-13.54,5.52,5.52,0,0,1,1.43-5,6,6,0,0,1,5.77-2s2.94,0,3.91-2,1.57-6.82,1.57-6.82Z" style="fill:#263238"></path></g><g id="freepik--character-1--inject-3"><path d="M165.32,475.8l.18-238h7.12c-.46,1.63,0,238,0,238Z" style="fill:#f5f5f5"></path><rect x="148.61" y="359.55" width="70.39" height="7.66" style="fill:#e0e0e0"></rect><g style="opacity:0.30000000000000004"><rect x="148.61" y="359.55" width="15.32" height="7.66" transform="translate(312.55 726.76) rotate(180)"></rect></g><rect x="161.51" y="411.12" width="70.39" height="7.66" style="fill:#e0e0e0"></rect><rect x="172.48" y="452.68" width="70.39" height="7.66" style="fill:#e0e0e0"></rect><polyline points="198.94 307.78 114.89 307.78 114.89 315.44 198.94 315.44" style="fill:#e0e0e0"></polyline><g style="opacity:0.30000000000000004"><rect x="114.63" y="307.78" width="34.85" height="7.38" transform="translate(264.11 622.94) rotate(180)"></rect></g><polygon points="159.6 187.33 252.99 475.74 244.59 475.74 151.21 189.7 159.6 187.33" style="fill:#e0e0e0"></polygon><g style="opacity:0.30000000000000004"><rect x="161.51" y="411.12" width="16.59" height="7.66" transform="translate(339.61 829.91) rotate(180)"></rect></g><g style="opacity:0.30000000000000004"><rect x="172.62" y="452.68" width="21.37" height="7.66" transform="translate(366.61 913.02) rotate(180)"></rect></g><path d="M113.94,167.36c11.78-.13,21.29.82,29.1,4.26,8.53,3.74,14.37,9.81,17.1,17.25l-8.93.83s-5.81-10.72-17-13.81c-8.06-2.23-19.51-1.87-22-1.32-5.24,1.15-8,6.68-4.59,17.09h0l85.54,284.08H184.4L98.05,189.65C97.05,186.35,92.78,167.58,113.94,167.36Z" style="fill:#e0e0e0"></path><path d="M114.89,475.8l.19-238,7.11,2.4c-.46,1.63,0,235.63,0,235.63Z" style="fill:#e0e0e0"></path><path d="M115,245.94c.15,0,.26,51.46.26,114.92S115.19,475.8,115,475.8s-.26-51.45-.26-114.94S114.9,245.94,115,245.94Z" style="fill:#263238"></path><path d="M122.4,269.85c.14,0,.26,46.11.26,103s-.12,103-.26,103-.26-46.1-.26-103S122.26,269.85,122.4,269.85Z" style="fill:#263238"></path><path d="M165.77,414c-.13,0-13.74-44.64-30.38-99.78s-30-99.9-29.89-99.94,13.74,44.62,30.39,99.79S165.91,414,165.77,414Z" style="fill:#263238"></path><path d="M193.88,414l-.76,22.3s22.42,8.27,22.68,12.4l-43.3.08-.14-20.08Z" style="fill:#263238"></path><path d="M179.73,434.48a1.76,1.76,0,0,0-1.22,2,1.69,1.69,0,0,0,2,1.22,1.86,1.86,0,0,0,1.28-2.14,1.77,1.77,0,0,0-2.21-1.05" style="fill:#e0e0e0"></path><path d="M172.5,448.81l.11-3.51,41.47,1.24s1.93.84,1.72,2.19Z" style="fill:#455a64"></path><path d="M193.82,436.11c0,.21-1.06.31-2.1,1s-1.59,1.57-1.79,1.49.12-1.31,1.39-2.11S193.87,435.92,193.82,436.11Z" style="fill:#fff"></path><path d="M198.37,438c0,.21-.87.57-1.59,1.46s-.92,1.84-1.13,1.84-.35-1.21.57-2.31S198.36,437.78,198.37,438Z" style="fill:#fff"></path><path d="M201,443.41c-.2,0-.49-1,0-2.17s1.53-1.62,1.62-1.44-.52.79-.95,1.75S201.17,443.39,201,443.41Z" style="fill:#fff"></path><path d="M193.43,431c-.09.19-1.06-.1-2.25,0s-2.13.47-2.24.28.79-.93,2.19-1S193.54,430.84,193.43,431Z" style="fill:#fff"></path><path d="M211,370.24l-1.36,21.36s21.25,8.56,21.38,12.54L189.55,403l.76-33.37Z" style="fill:#263238"></path><path d="M196.89,389.44a1.71,1.71,0,0,0-1.23,1.9,1.63,1.63,0,0,0,1.88,1.23,1.79,1.79,0,0,0,1.29-2,1.7,1.7,0,0,0-2.1-1.06" style="fill:#e0e0e0"></path><path d="M189.55,403l.21-3.36L229.48,402s1.83.86,1.58,2.16Z" style="fill:#455a64"></path><path d="M210.35,391.41c0,.2-1,.26-2,.89s-1.57,1.46-1.75,1.37.15-1.25,1.39-2S210.4,391.22,210.35,391.41Z" style="fill:#fff"></path><path d="M214.66,393.33c0,.2-.85.52-1.56,1.36s-.94,1.73-1.14,1.72-.3-1.16.61-2.19S214.66,393.14,214.66,393.33Z" style="fill:#fff"></path><path d="M217,398.61c-.18,0-.43-1,.12-2.08s1.51-1.51,1.59-1.34-.52.75-1,1.66S217.19,398.6,217,398.61Z" style="fill:#fff"></path><path d="M210.13,386.5c-.09.19-1-.12-2.16-.07s-2.06.38-2.16.2.78-.87,2.14-.91S210.23,386.35,210.13,386.5Z" style="fill:#fff"></path><path d="M172.16,124a4.28,4.28,0,0,1,3.8-3.18,5.85,5.85,0,0,1,7-1.58,5.21,5.21,0,0,1,8.65,2.27c2.5.65,4.08.28,5,1.14a4.3,4.3,0,0,1,.48,5.08,4.18,4.18,0,0,1,.22,8.32l-23.23-7.49A4.27,4.27,0,0,1,172.16,124Z" style="fill:#263238"></path><path d="M198,136.44A17.75,17.75,0,0,0,177,124.79l-.9.22c-9.49,2.92-12.31,12.61-9.13,22l9.25,31.72,2.6,8.6,21.18-8-2-8.17s8.91-3.7,6.75-13C203.64,153.66,200.75,144.6,198,136.44Z" style="fill:#ffbf9d"></path><path d="M198,171.1a23.16,23.16,0,0,1-13-.58s4.48,6,13.51,2.87Z" style="fill:#ff9a6c"></path><path d="M197.77,145.91a1.37,1.37,0,0,1-1,1.65,1.32,1.32,0,0,1-1.66-.86,1.37,1.37,0,0,1,1-1.65A1.32,1.32,0,0,1,197.77,145.91Z" style="fill:#263238"></path><path d="M197.16,141.45c-.12.21-1.3-.28-2.73.07s-2.29,1.32-2.48,1.18,0-.41.37-.85a3.67,3.67,0,0,1,1.94-1.16,3.59,3.59,0,0,1,2.22.16C197,141.08,197.22,141.35,197.16,141.45Z" style="fill:#263238"></path><path d="M185.26,149.22a1.36,1.36,0,0,1-.95,1.64,1.29,1.29,0,0,1-1.65-.86,1.36,1.36,0,0,1,.94-1.64A1.31,1.31,0,0,1,185.26,149.22Z" style="fill:#263238"></path><path d="M183.24,145.14c-.12.21-1.3-.28-2.72.07s-2.29,1.32-2.49,1.18,0-.41.37-.85a3.71,3.71,0,0,1,1.94-1.16,3.58,3.58,0,0,1,2.22.16C183.08,144.77,183.31,145,183.24,145.14Z" style="fill:#263238"></path><path d="M191,154.42a9.41,9.41,0,0,1,2.21-1c.35-.13.68-.28.68-.55a1.92,1.92,0,0,0-.51-1c-.55-.8-1.14-1.63-1.75-2.5-2.46-3.58-4.33-6.55-4.18-6.65s2.25,2.72,4.71,6.29c.59.89,1.16,1.73,1.71,2.53a2.17,2.17,0,0,1,.53,1.38.94.94,0,0,1-.46.68,2.77,2.77,0,0,1-.6.24A9.22,9.22,0,0,1,191,154.42Z" style="fill:#263238"></path><path d="M187.05,156.43c.22-.07.6,1.47,2.19,2.25s3.2.2,3.26.41-.29.39-1,.58a4,4,0,0,1-2.7-.26,3.4,3.4,0,0,1-1.74-1.91C186.86,156.87,186.94,156.45,187.05,156.43Z" style="fill:#263238"></path><path d="M182.25,139.48c-.05.42-1.51.58-3.13,1.19s-2.86,1.4-3.17,1.1c-.14-.14,0-.56.46-1.07a5.91,5.91,0,0,1,4.8-1.75C181.88,139.05,182.26,139.28,182.25,139.48Z" style="fill:#263238"></path><path d="M196.35,137.32c-.17.39-1.23.29-2.41.57s-2.13.75-2.44.46c-.14-.14-.06-.5.3-.91a3.38,3.38,0,0,1,1.83-1,3.46,3.46,0,0,1,2.08.18C196.2,136.84,196.42,137.14,196.35,137.32Z" style="fill:#263238"></path><path d="M196.09,131.81s-3.86-5.2-7-5.87c-3.79-.81-4.33,3.26-7.78,3.15s-7.06-.89-9.74,2.41c-2.94,3.61-.78,5.11,0,9.27,3.18,16.87,1.29,22.32-1.5,14.69-.3-.83-2.85-.93-4.1-4.47-1.61-4.6-3.19-10.27-3-13.87.2-3,1.33-5.37,3.68-8.22,3.72-4.5,9.94-6.1,14.28-6.71S194.7,124.45,196.09,131.81Z" style="fill:#263238"></path><path d="M170.64,155.67a2.6,2.6,0,0,0-3.31-1.76c-1.68.59-3.36,2-2.38,5.58,1.75,6.28,7.7,3.22,7.66,3S171.39,158.29,170.64,155.67Z" style="fill:#ffbf9d"></path><path d="M170.58,160.55s-.09.11-.25.24a1.11,1.11,0,0,1-.81.25c-.73-.06-1.58-1-1.93-2.08a3.63,3.63,0,0,1-.13-1.65,1.3,1.3,0,0,1,.59-1.07.57.57,0,0,1,.73.12c.13.15.12.29.16.29s.11-.14,0-.39a.69.69,0,0,0-.35-.32.86.86,0,0,0-.65,0,1.55,1.55,0,0,0-.87,1.29,3.8,3.8,0,0,0,.11,1.85,2.94,2.94,0,0,0,2.35,2.27,1.2,1.2,0,0,0,1-.45C170.61,160.7,170.61,160.55,170.58,160.55Z" style="fill:#ff9a6c"></path><path d="M167.76,143.38a6.12,6.12,0,0,0,3,.58,2.11,2.11,0,0,0,1.93-2c0-.46-.26-.94-.06-1.36s.92-.51,1.46-.59a4.16,4.16,0,0,0,3.49-3.92,1.74,1.74,0,0,0,2.32-.34,9.52,9.52,0,0,0,1.27-2.27,2.69,2.69,0,0,1,1.91-1.62,6.37,6.37,0,0,0,1.45,0c.81-.28,1-1.35.9-2.21s-.21-1.84.38-2.46a3.48,3.48,0,0,1,2.25-.62c.79-.07,1.74-.49,1.75-1.29a1.55,1.55,0,0,0-.56-1.08,4.22,4.22,0,0,0-5.22-.36,5.72,5.72,0,0,0-10.47,1.42,5.82,5.82,0,0,0-8.51,4.26,4.21,4.21,0,0,0-3.15,7.07,4,4,0,0,0-1.38,3.62,2.3,2.3,0,0,0,3.08,1.65,2.33,2.33,0,0,0,4.46,1.3" style="fill:#263238"></path><path d="M163.11,141.92s0,.56.69,1.12a2.15,2.15,0,0,0,1.45.45,2.28,2.28,0,0,0,1.68-1l-.28,0a6.46,6.46,0,0,0,1.65,1.27,3.79,3.79,0,0,0,1.33.44,2.92,2.92,0,0,0,2.87-1.69,3.79,3.79,0,0,0,.19-1.44c0-.34-.05-.53-.08-.53a2.71,2.71,0,0,0-.06.52,4.69,4.69,0,0,1-.29,1.35,2.65,2.65,0,0,1-3.78,1,6.59,6.59,0,0,1-1.57-1.18l-.16-.16-.12.18a1.93,1.93,0,0,1-1.41.86,1.91,1.91,0,0,1-1.29-.32A3.05,3.05,0,0,1,163.11,141.92Z" style="fill:#455a64"></path><path d="M171.52,124.54s.18,0,.49.06a2.23,2.23,0,0,1,1.19.59l.1.1.06-.14a8.11,8.11,0,0,1,2.46-3.22,6.24,6.24,0,0,1,2.35-1.16,5.31,5.31,0,0,1,2.87.11,5.47,5.47,0,0,1,2,1.12,4.51,4.51,0,0,1,1.16,1.74l.07.19.18-.1a3.67,3.67,0,0,1,2.7-.32,3.55,3.55,0,0,1,1.82,1.19,4.8,4.8,0,0,1,.85,1.78,1.12,1.12,0,0,0,0-.54,3.54,3.54,0,0,0-.63-1.37,3.7,3.7,0,0,0-1.91-1.34,3.93,3.93,0,0,0-2.95.3l.25.1a4.78,4.78,0,0,0-1.24-1.9,5.88,5.88,0,0,0-2.11-1.21,5.61,5.61,0,0,0-3.06-.1,6.52,6.52,0,0,0-2.48,1.25,8,8,0,0,0-2.44,3.41l.17,0a2.2,2.2,0,0,0-1.32-.55A1,1,0,0,0,171.52,124.54Z" style="fill:#455a64"></path><path d="M214.17,282.09c.57.88-1.14,76.6-1.42,84.2s-15.82,66.87-15.82,66.87l-26-1.75s7.93-59.27,8.5-61.61a61.94,61.94,0,0,0,.86-9.06c0-.88-11.05-60.34-11.05-60.34s-5.86-13.45-6.72-17.54.48-27.75.48-27.75l48.36,6.52Z" style="fill:#263238"></path><path d="M235.87,317.69a19.16,19.16,0,0,0-2-8.46c-2.9-5.89-11.34-21.81-14-25.54-3.71-5.26-11-20.31-11-20.31L185,280.63l17.41,43-11.46,59.34L216.47,388,235,323.27a19.19,19.19,0,0,0,.83-5.58Z" style="fill:#263238"></path><path d="M217,287.18a1.42,1.42,0,0,0,0,.38c0,.28,0,.66-.06,1.12,0,1-.09,2.47-.17,4.32-.12,3.78-.3,9.19-.52,15.86s-.49,14.68-.78,23.53c-.16,4.42-.33,9.07-.51,13.89s-.35,9.82-.8,14.87c-.93,5-2.15,9.85-3.23,14.54l-3.26,13.52c-2.1,8.6-4,16.35-5.59,22.87s-2.87,11.74-3.77,15.41c-.43,1.8-.77,3.21-1,4.2-.11.46-.19.82-.25,1.1s-.07.37-.07.37a1.29,1.29,0,0,0,.13-.36q.1-.41.3-1.08l1.1-4.17,3.95-15.38,5.71-22.84c1-4.3,2.15-8.82,3.29-13.51s2.31-9.52,3.25-14.59c.46-5.14.58-10.11.8-14.93s.32-9.47.47-13.9c.25-8.85.47-16.82.66-23.53s.26-12.09.35-15.87c0-1.84,0-3.29.06-4.31v-1.13A2.79,2.79,0,0,0,217,287.18Z" style="fill:#455a64"></path><path d="M261.35,135.14s-2.25-5.76-2.4-7.55.35-7.5-.55-9.85a1.56,1.56,0,0,1,2.59.51,17.14,17.14,0,0,1,2.06,6.55c0,1.5,1.19,1.38,1.82.51s3.83-7.49,3.83-7.49,2.44-8.09,3.49-8.49a1.63,1.63,0,0,1,2.12,1.25c0,.54-1.41,7.68-1.41,7.68l-1.45,3.45s5.36-11.28,6.52-11.62a1.61,1.61,0,0,1,2.12,1c.2.68-2.52,6.19-2.52,6.19l-2.73,6.44,7-11.08s.81-1,1.7-.43a1.38,1.38,0,0,1,.6.84,2.61,2.61,0,0,1-.22,1.86l-5.89,11.5s3.73-6.53,4.4-6.57c.89,0,1.34.45,1.22,1.06-.24,1.24-3.38,7.27-3.38,7.27l-6.54,11.1-2.83,5.56-11.13-6.31Z" style="fill:#ffbf9d"></path><path d="M211.71,197.31c15.86-3.15,31.54-8.29,40.17-12.77a23.92,23.92,0,0,0,9.44-8.82l11.77-35.13-13.29-2.07-13.49,28.6L201,182Z" style="fill:#ffbf9d"></path><path d="M176.57,177.15l23.6-.68,12,3s6.35,7.78,7.81,14.39l-2.4,19.61-.87,36.85,1.17,24.36c.85,1.48.7,2,.12,3.74-13.54,5.83-39,6.94-56.8-.44l-1.1-65.33,1.29-30.7Z" style="fill:#6366F1"></path><path d="M146.56,239.77c-6.29,6.66-11.53,1.73-12.89-1s.25-9,.25-9l8.53-16.31L158,222.19Z" style="fill:#ffbf9d"></path><path d="M161.43,182A20.7,20.7,0,0,0,150.86,193c-.73,1.89-12,24.41-12,24.41l12,8.54,4.45,3.18,6.13-10.6V182Z" style="fill:#6366F1"></path><path d="M159.71,196.51a6.85,6.85,0,0,0-.1,1.4c0,.9,0,2.2,0,3.82,0,3.22.12,7.67.28,12.58s.32,9.25.44,12.59l.15,3.81a6.62,6.62,0,0,0,.12,1.4,6,6,0,0,0,.1-1.4c0-.91,0-2.21,0-3.82,0-3.23-.11-7.68-.27-12.59s-.33-9.24-.45-12.58l-.15-3.81A6.62,6.62,0,0,0,159.71,196.51Z" style="fill:#263238"></path><path d="M228.9,171.21l-26.49,5.71s-8.94,6.77-4.86,16.67c5.3,12.83,13,7.81,18.37,8l21.78-6.42Z" style="fill:#6366F1"></path><path d="M204.43,200.48a3.81,3.81,0,0,1-1.16-.29,9.34,9.34,0,0,1-2.75-1.71A15.06,15.06,0,0,1,196,189a18.11,18.11,0,0,1,.63-5.87,11.23,11.23,0,0,1,.95-2.4A5.68,5.68,0,0,1,199,179c1.11-.84,2.07-1.34,2.67-1.8s.89-.75.92-.72a3,3,0,0,1-.79.88c-.57.51-1.53,1.09-2.56,1.93a7.18,7.18,0,0,0-2.22,4,18.62,18.62,0,0,0-.57,5.69,15.25,15.25,0,0,0,4.3,9.27A11.42,11.42,0,0,0,204.43,200.48Z" style="fill:#263238"></path></g></svg>
